<svg xmlns="http://www.w3.org/2000/svg" viewBox="0 0 86 142.73"><defs><style>.cls-1{fill:#3a612a;}.cls-1,.cls-6{stroke:#000;}.cls-1,.cls-10,.cls-3,.cls-6,.cls-9{stroke-miterlimit:10;}.cls-2,.cls-3{fill:#c5d84b;}.cls-3{stroke:#c5d84b;}.cls-4{fill:#fdf164;}.cls-5{fill:#fbf38d;}.cls-6{fill:#532017;}.cls-7{fill:#7f4f30;}.cls-8{fill:#b67a4c;}.cls-9{fill:#fff;stroke:#fff;}.cls-10{fill:none;stroke:#ed1e79;stroke-width:3px;}</style></defs><title>avocado</title><g id="Layer_2" data-name="Layer 2"><g id="ICONS"><g id="avocado"><g id="outer"><path id="dark" class="cls-1" d="M61.11,5.2c2.65.76,3.81-.28,5.7,0,4.14.61,6.91,6.65,7.26,8.81.92,5.75,1.34,10.42,1.56,13.48.43,6.13.21,8.41.52,21.25.17,7,.26,10.57.52,12.44,1.17,8.37,3.48,11.63,5.18,18.14a53.69,53.69,0,0,1,1,21.25,50.48,50.48,0,0,1-15.29,28.25A40.39,40.39,0,0,1,51,138.69a35.58,35.58,0,0,1-19.18.52A36.12,36.12,0,0,1,14.7,128.84,42.31,42.31,0,0,1,4.33,110.17a49.93,49.93,0,0,1-1-22.29c.77-5,1.78-11.52,6.22-18.14,3.61-5.39,5.56-5,10.89-11.92,2.86-3.73,4.67-7.15,8.3-14C31.09,39.3,34.35,33.13,38,24.64c0,0,2.32-5.36,6.22-12.44C46.22,8.62,47.85,6,51,4.42a9.11,9.11,0,0,1,6.22-1C58.93,3.82,59.15,4.63,61.11,5.2Z"/><path id="light" class="cls-2" d="M60,10.89c2.38.69,3.43-.25,5.13,0,3.72.55,6.22,6,6.53,7.93.83,5.17,1.21,9.37,1.4,12.12.39,5.51.19,7.57.47,19.11.15,6.31.23,9.51.47,11.19C75,68.77,77.09,71.7,78.62,77.56a48.29,48.29,0,0,1,.93,19.11A45.39,45.39,0,0,1,65.8,122.08a36.32,36.32,0,0,1-14.92,8.86,32,32,0,0,1-17.25.47,32.48,32.48,0,0,1-15.38-9.32A38.05,38.05,0,0,1,8.93,105.3a44.91,44.91,0,0,1-.93-20c.69-4.48,1.6-10.36,5.59-16.32,3.25-4.85,5-4.48,9.79-10.72,2.58-3.36,4.2-6.43,7.46-12.59C33,41.56,35.92,36,39.23,28.38c0,0,2.09-4.82,5.59-11.19,1.77-3.21,3.23-5.59,6.06-7a8.19,8.19,0,0,1,5.59-.93C58,9.66,58.22,10.39,60,10.89Z"/></g><path id="middle" class="cls-3" d="M60.68,11.13c.38-.76,4.95-1,7.69,1.17,3.23,2.57,3.86,6.73,4.2,9.32a170.29,170.29,0,0,1,1.17,23.08c.09,10.23.17,15.47,1.86,21.91s2.91,6.41,4.2,12.12a44,44,0,0,1-.47,21.91A43.75,43.75,0,0,1,63.94,123a36.78,36.78,0,0,1-17.72,7.93,31.59,31.59,0,0,1-15.38-1.4,32.44,32.44,0,0,1-14.45-10.72,39,39,0,0,1-7.46-15.38A44.36,44.36,0,0,1,9.4,78.26a45.15,45.15,0,0,1,8.39-14.92c2.79-3.39,3.76-3.09,6.53-6.53C29.84,50,31.4,43,32.24,43.29c.41.13.29,1.88,0,3.26a15.67,15.67,0,0,1-4.66,7.93C25.67,56.32,23,60.68,17.79,69.4c-2.68,4.46-7.91,13.13-7.46,24.24A36.34,36.34,0,0,0,19.65,116c2,2.1,9.72,10.37,21.91,10.72,14.38.41,23.51-10.51,25.64-13.05a36.15,36.15,0,0,0,7.46-14.92,39.46,39.46,0,0,0-1.4-21.44c-1.6-4.75-2.62-4.8-3.73-9.32-.4-1.64-1.1-5-.47-15.38.49-8,1.07-8.88,1.4-16.78.26-6.27,0-9.28-.93-12.59a22.37,22.37,0,0,0-3.73-7.93C63.42,12.22,60.35,11.77,60.68,11.13Z"/><path id="inside" class="cls-4" d="M59.81,10.77c2.23.64,3.2-.24,4.79,0,3.48.51,5.81,5.58,6.1,7.4C71.47,23,71.82,26.92,72,29.49c.36,5.14.18,7.06.44,17.84.14,5.89.22,8.87.44,10.44,1,7,2.92,9.76,4.36,15.23a45,45,0,0,1,.87,17.84,42.36,42.36,0,0,1-12.85,23.72,33.94,33.94,0,0,1-13.94,8.27,29.93,29.93,0,0,1-16.12.44,30.36,30.36,0,0,1-14.38-8.7A35.51,35.51,0,0,1,12.1,98.9a41.88,41.88,0,0,1-.87-18.71c.65-4.18,1.5-9.67,5.23-15.23,3-4.53,4.67-4.18,9.15-10,2.41-3.13,3.93-6,7-11.75,2-3.79,4.75-9,7.84-16.1,0,0,1.95-4.5,5.23-10.44,1.65-3,3-5.22,5.66-6.53a7.66,7.66,0,0,1,5.23-.87C58,9.62,58.16,10.3,59.81,10.77Z"/><g id="highlights"><path id="top" class="cls-5" d="M57.41,16.72c2,.37,3,3.41,3.26,4.2,1,3.11,0,6.13-.47,7.46-1.06,3.21-2.4,4-7,9.79-2.88,3.6-4.94,6.47-7,9.32-3,4.18-4.49,6.28-5.13,7.46-2.67,4.95-3,8-5.59,8.86a4,4,0,0,1-3.73-.47c-2.33-2-.15-8,1.4-12.12,2-5.28,3.07-6.05,9.79-17.72a115.06,115.06,0,0,1,8.86-12.59C53.77,18.46,55.56,16.38,57.41,16.72Z"/><path id="bottom" class="cls-5" d="M69.77,84.09A3.92,3.92,0,0,1,73,83.62c2.26.75,3,3.81,3.26,5.13,1.51,6.58-3.58,13.81-6.06,17.25-.54.75-9,12.25-21.91,16.32-4.61,1.46-7.5,1.24-9.79.47-2.11-.71-5.26-2-5.13-3.26s2.87-1.35,9.09-3c5.43-1.47,8.14-2.2,10.72-3.73a22.87,22.87,0,0,0,7.93-8.39C62.55,102,66.52,94.61,67.67,88,67.8,87.28,68.14,85.15,69.77,84.09Z"/></g><g id="seed"><g id="heart"><path class="cls-2" d="M42.83,71.29a11.91,11.91,0,0,1,3.87,5.92l3.76-3a9.44,9.44,0,0,1,12.82,2.82c3.72,5.28,2,13.2-.77,17.55a13.83,13.83,0,0,1-2.77,3.19L40,112.43,27.19,90.63A14.25,14.25,0,0,1,26,86.57c-.6-4.43.46-11.62,5.43-15.26A9.36,9.36,0,0,1,42.83,71.29Z"/><path class="cls-6" d="M43.44,72.33A9.56,9.56,0,0,1,46.67,77l3.06-2.29A8.07,8.07,0,0,1,60.27,77c3.1,4.17,1.75,10.35-.47,13.73a10.65,10.65,0,0,1-2.25,2.47l-16.1,11.28L30.78,87.33a11,11,0,0,1-1-3.19c-.53-3.48.28-9.09,4.32-11.9A8,8,0,0,1,43.44,72.33Z"/><path class="cls-7" d="M44.07,75.08a7.84,7.84,0,0,1,2.65,3.83L49.22,77a6.62,6.62,0,0,1,8.65,1.91c2.54,3.42,1.43,8.49-.39,11.26a8.73,8.73,0,0,1-1.84,2l-13.2,9.25L33.68,87.38a9,9,0,0,1-.82-2.61c-.44-2.85.23-7.46,3.55-9.76A6.55,6.55,0,0,1,44.07,75.08Z"/><path class="cls-8" d="M48.24,80.3a3.68,3.68,0,0,1,1.24,1.79l1.18-.88a3.11,3.11,0,0,1,4.06.89c1.19,1.6.67,4-.18,5.28a4.1,4.1,0,0,1-.86,1l-6.19,4.34-4.11-6.61A4.22,4.22,0,0,1,43,84.85a4.85,4.85,0,0,1,1.66-4.58A3.07,3.07,0,0,1,48.24,80.3Z"/></g><path id="seed_highlight" data-name="seed highlight" class="cls-9" d="M49.06,82.25a1.88,1.88,0,0,1,.59.94l.59-.48a1.43,1.43,0,0,1,2,.44A2.81,2.81,0,0,1,52.09,86a2.24,2.24,0,0,1-.43.51l-3.09,2.37-2-3.48a2.31,2.31,0,0,1-.18-.65,2.78,2.78,0,0,1,.86-2.45A1.42,1.42,0,0,1,49.06,82.25Z"/></g><path id="outline" class="cls-10" d="M61.55,3.56c2.72.78,3.9-.29,5.84,0,4.24.62,7.08,6.77,7.44,9,.94,5.86,1.37,10.62,1.59,13.74.44,6.25.22,8.57.53,21.66.17,7.16.26,10.77.53,12.68,1.2,8.53,3.56,11.85,5.31,18.49a54.42,54.42,0,0,1,1.06,21.66,51.38,51.38,0,0,1-15.67,28.79,41.42,41.42,0,0,1-17,10,36.65,36.65,0,0,1-19.66.53A37,37,0,0,1,14,129.56a43,43,0,0,1-10.63-19A50.62,50.62,0,0,1,2.32,87.82c.79-5.07,1.83-11.74,6.38-18.49,3.7-5.49,5.7-5.07,11.16-12.15,2.94-3.8,4.79-7.29,8.5-14.26,2.45-4.6,5.79-10.89,9.56-19.55,0,0,2.38-5.46,6.38-12.68,2-3.64,3.68-6.34,6.91-7.92a9.38,9.38,0,0,1,6.38-1.06C60.36,2.42,58.76,2.76,61.55,3.56Z"/></g></g></g></svg>