<svg xmlns="http://www.w3.org/2000/svg" viewBox="0 0 107.78 89.06"><defs><style>.cls-1,.cls-3{fill:#ed1e79;}.cls-1{stroke:#ed1e79;stroke-width:5px;}.cls-1,.cls-2,.cls-3{stroke-miterlimit:10;}.cls-2{fill:#ff7bac;}.cls-2,.cls-3{stroke:#231f20;stroke-width:2px;}</style></defs><title>boxers</title><g id="Layer_2" data-name="Layer 2"><g id="ICONS"><g id="boxers"><g id="outline"><path class="cls-1" d="M11.58,2.5h84v12c1.44,3.46,2.79,7.12,4,11,7.12,22.88,6.45,44.06,4,60h-41l-9-25-8,25-43,1c.27-9.1.89-18.79,2-29a372.42,372.42,0,0,1,7-42Z"/><rect class="cls-1" x="11.58" y="2.5" width="83" height="12"/><path class="cls-1" d="M49.08,15h11a0,0,0,0,1,0,0V48.5a4.5,4.5,0,0,1-4.5,4.5h-2a4.5,4.5,0,0,1-4.5-4.5V15A0,0,0,0,1,49.08,15Z"/><path class="cls-1" d="M33.79,20.11a5.09,5.09,0,0,1,1.86,2.33l1.67-1.05a5.08,5.08,0,0,1,5.9,1.34c1.78,2.09,1.11,5.06-.08,6.66a5,5,0,0,1-1.22,1.16L33.12,35.7l-6.17-8.56a5.18,5.18,0,0,1-.6-1.57c-.34-1.7,0-4.41,2.25-5.69A5,5,0,0,1,33.79,20.11Z"/><path class="cls-1" d="M15.31,32.07A5.09,5.09,0,0,1,17,34.52l1.74-.94a5.08,5.08,0,0,1,5.8,1.73c1.64,2.2.77,5.13-.52,6.64A5,5,0,0,1,22.73,43L13.6,47.59,8,38.63A5.18,5.18,0,0,1,7.52,37c-.23-1.72.33-4.4,2.62-5.53A5,5,0,0,1,15.31,32.07Z"/><path class="cls-1" d="M11.72,55.62a5.09,5.09,0,0,1,2.42,1.74l1.32-1.46a5.08,5.08,0,0,1,6-.3c2.28,1.53,2.43,4.58,1.72,6.44a5,5,0,0,1-.86,1.44l-7.09,7.34L7,64.25A5.17,5.17,0,0,1,6,62.9c-.79-1.54-1.16-4.26.63-6.09A5,5,0,0,1,11.72,55.62Z"/><path class="cls-1" d="M35.9,45a5.09,5.09,0,0,1,2.6,1.45l1.15-1.61a5.08,5.08,0,0,1,6-1c2.44,1.26,2.95,4.27,2.45,6.2a5,5,0,0,1-.69,1.53l-6.2,8.11-9-5.58a5.18,5.18,0,0,1-1.15-1.22c-1-1.44-1.64-4.1-.08-6.12A5,5,0,0,1,35.9,45Z"/><path class="cls-1" d="M33.75,66.11a5.09,5.09,0,0,1,1.87,2.32l1.67-1.06a5.08,5.08,0,0,1,5.91,1.31c1.79,2.08,1.14,5.06,0,6.66a5,5,0,0,1-1.21,1.16l-8.78,5.21-6.22-8.53a5.17,5.17,0,0,1-.61-1.56c-.35-1.7,0-4.41,2.22-5.71A5,5,0,0,1,33.75,66.11Z"/><path class="cls-1" d="M70.1,20.9a5.09,5.09,0,0,1,2.56,1.53l1.19-1.57a5.08,5.08,0,0,1,6-.82c2.4,1.33,2.82,4.35,2.27,6.27a5,5,0,0,1-.73,1.51L75,35.74,66.17,29.9a5.18,5.18,0,0,1-1.11-1.26c-.92-1.47-1.52-4.14.1-6.12A5,5,0,0,1,70.1,20.9Z"/><path class="cls-1" d="M68.75,44.11a5.09,5.09,0,0,1,1.87,2.32l1.67-1.06a5.08,5.08,0,0,1,5.91,1.31c1.79,2.08,1.14,5.06,0,6.66a5,5,0,0,1-1.21,1.16l-8.78,5.21-6.22-8.53a5.17,5.17,0,0,1-.61-1.56c-.35-1.7,0-4.41,2.22-5.71A5,5,0,0,1,68.75,44.11Z"/><path class="cls-1" d="M71,67a5.09,5.09,0,0,1,2.59,1.48l1.17-1.59a5.08,5.08,0,0,1,6-.93c2.42,1.29,2.9,4.3,2.38,6.22a5,5,0,0,1-.71,1.52l-6.29,8L67.21,76a5.18,5.18,0,0,1-1.13-1.24c-.94-1.45-1.6-4.11,0-6.12A5,5,0,0,1,71,67Z"/><path class="cls-1" d="M89.08,33.52a5.09,5.09,0,0,1,2.76,1.12l.94-1.74a5.08,5.08,0,0,1,5.8-1.73c2.57.95,3.45,3.87,3.2,5.85a5,5,0,0,1-.49,1.6l-5.14,8.82L86.56,43a5.18,5.18,0,0,1-1.29-1.07c-1.13-1.31-2.14-3.86-.84-6.06A5,5,0,0,1,89.08,33.52Z"/><path class="cls-1" d="M92.51,55.14a5.09,5.09,0,0,1,1.94,2.26l1.63-1.11A5.08,5.08,0,0,1,102,57.42c1.85,2,1.29,5,.16,6.66a5,5,0,0,1-1.17,1.2l-8.62,5.47-6.47-8.33a5.18,5.18,0,0,1-.65-1.55c-.4-1.69-.13-4.41,2-5.77A5,5,0,0,1,92.51,55.14Z"/><path class="cls-1" d="M91.78,76.52a5.09,5.09,0,0,1,2.31,1.89L95.5,77a5.08,5.08,0,0,1,6.05.06c2.18,1.66,2.16,4.71,1.33,6.53a5,5,0,0,1-.95,1.39H85.08c-.27-.3.28.64,0,0-.69-1.59-.32-5.88,1.57-7.6A5,5,0,0,1,91.78,76.52Z"/><path class="cls-1" d="M10.78,77.52a5.09,5.09,0,0,1,2.31,1.89L14.5,78a5.08,5.08,0,0,1,6.05.06c2.18,1.66,2.16,4.71,1.33,6.53A5,5,0,0,1,20.93,86H4.08c-.27-.3.28.64,0,0-.69-1.59-.32-5.88,1.57-7.6A5,5,0,0,1,10.78,77.52Z"/><polygon class="cls-1" points="17.08 24 25.02 14.79 12.08 15 10.69 21.39 17.08 24"/><polygon class="cls-1" points="83.69 14.79 91.63 24 98.02 21.39 95.08 15 83.69 14.79"/></g><path id="bckgrnd" class="cls-2" d="M11.58,2.5h84v12c1.44,3.46,2.79,7.12,4,11,7.12,22.88,6.45,44.06,4,60h-41l-9-25-8,25-43,1c.27-9.1.89-18.79,2-29a372.42,372.42,0,0,1,7-42Z"/><rect id="band" class="cls-3" x="11.58" y="2.5" width="83" height="12"/><path id="pouch" class="cls-3" d="M49.08,15h11a0,0,0,0,1,0,0V48.5a4.5,4.5,0,0,1-4.5,4.5h-2a4.5,4.5,0,0,1-4.5-4.5V15A0,0,0,0,1,49.08,15Z"/><g id="hearts"><path class="cls-3" d="M33.79,20.11a5.09,5.09,0,0,1,1.86,2.33l1.67-1.05a5.08,5.08,0,0,1,5.9,1.34c1.78,2.09,1.11,5.06-.08,6.66a5,5,0,0,1-1.22,1.16L33.12,35.7l-6.17-8.56a5.18,5.18,0,0,1-.6-1.57c-.34-1.7,0-4.41,2.25-5.69A5,5,0,0,1,33.79,20.11Z"/><path class="cls-3" d="M15.31,32.07A5.09,5.09,0,0,1,17,34.52l1.74-.94a5.08,5.08,0,0,1,5.8,1.73c1.64,2.2.77,5.13-.52,6.64A5,5,0,0,1,22.73,43L13.6,47.59,8,38.63A5.18,5.18,0,0,1,7.52,37c-.23-1.72.33-4.4,2.62-5.53A5,5,0,0,1,15.31,32.07Z"/><path class="cls-3" d="M11.72,55.62a5.09,5.09,0,0,1,2.42,1.74l1.32-1.46a5.08,5.08,0,0,1,6-.3c2.28,1.53,2.43,4.58,1.72,6.44a5,5,0,0,1-.86,1.44l-7.09,7.34L7,64.25A5.17,5.17,0,0,1,6,62.9c-.79-1.54-1.16-4.26.63-6.09A5,5,0,0,1,11.72,55.62Z"/><path class="cls-3" d="M35.9,45a5.09,5.09,0,0,1,2.6,1.45l1.15-1.61a5.08,5.08,0,0,1,6-1c2.44,1.26,2.95,4.27,2.45,6.2a5,5,0,0,1-.69,1.53l-6.2,8.11-9-5.58a5.18,5.18,0,0,1-1.15-1.22c-1-1.44-1.64-4.1-.08-6.12A5,5,0,0,1,35.9,45Z"/><path class="cls-3" d="M33.75,66.11a5.09,5.09,0,0,1,1.87,2.32l1.67-1.06a5.08,5.08,0,0,1,5.91,1.31c1.79,2.08,1.14,5.06,0,6.66a5,5,0,0,1-1.21,1.16l-8.78,5.21-6.22-8.53a5.17,5.17,0,0,1-.61-1.56c-.35-1.7,0-4.41,2.22-5.71A5,5,0,0,1,33.75,66.11Z"/><path class="cls-3" d="M70.1,20.9a5.09,5.09,0,0,1,2.56,1.53l1.19-1.57a5.08,5.08,0,0,1,6-.82c2.4,1.33,2.82,4.35,2.27,6.27a5,5,0,0,1-.73,1.51L75,35.74,66.17,29.9a5.18,5.18,0,0,1-1.11-1.26c-.92-1.47-1.52-4.14.1-6.12A5,5,0,0,1,70.1,20.9Z"/><path class="cls-3" d="M68.75,44.11a5.09,5.09,0,0,1,1.87,2.32l1.67-1.06a5.08,5.08,0,0,1,5.91,1.31c1.79,2.08,1.14,5.06,0,6.66a5,5,0,0,1-1.21,1.16l-8.78,5.21-6.22-8.53a5.17,5.17,0,0,1-.61-1.56c-.35-1.7,0-4.41,2.22-5.71A5,5,0,0,1,68.75,44.11Z"/><path class="cls-3" d="M71,67a5.09,5.09,0,0,1,2.59,1.48l1.17-1.59a5.08,5.08,0,0,1,6-.93c2.42,1.29,2.9,4.3,2.38,6.22a5,5,0,0,1-.71,1.52l-6.29,8L67.21,76a5.18,5.18,0,0,1-1.13-1.24c-.94-1.45-1.6-4.11,0-6.12A5,5,0,0,1,71,67Z"/><path class="cls-3" d="M89.08,33.52a5.09,5.09,0,0,1,2.76,1.12l.94-1.74a5.08,5.08,0,0,1,5.8-1.73c2.57.95,3.45,3.87,3.2,5.85a5,5,0,0,1-.49,1.6l-5.14,8.82L86.56,43a5.18,5.18,0,0,1-1.29-1.07c-1.13-1.31-2.14-3.86-.84-6.06A5,5,0,0,1,89.08,33.52Z"/><path class="cls-3" d="M92.51,55.14a5.09,5.09,0,0,1,1.94,2.26l1.63-1.11A5.08,5.08,0,0,1,102,57.42c1.85,2,1.29,5,.16,6.66a5,5,0,0,1-1.17,1.2l-8.62,5.47-6.47-8.33a5.18,5.18,0,0,1-.65-1.55c-.4-1.69-.13-4.41,2-5.77A5,5,0,0,1,92.51,55.14Z"/><path class="cls-3" d="M91.78,76.52a5.09,5.09,0,0,1,2.31,1.89L95.5,77a5.08,5.08,0,0,1,6.05.06c2.18,1.66,2.16,4.71,1.33,6.53a5,5,0,0,1-.95,1.39H85.08c-.27-.3.28.64,0,0-.69-1.59-.32-5.88,1.57-7.6A5,5,0,0,1,91.78,76.52Z"/><path class="cls-3" d="M10.78,77.52a5.09,5.09,0,0,1,2.31,1.89L14.5,78a5.08,5.08,0,0,1,6.05.06c2.18,1.66,2.16,4.71,1.33,6.53A5,5,0,0,1,20.93,86H4.08c-.27-.3.28.64,0,0-.69-1.59-.32-5.88,1.57-7.6A5,5,0,0,1,10.78,77.52Z"/><polygon class="cls-3" points="17.08 24 25.02 14.79 12.08 15 10.69 21.39 17.08 24"/><polygon class="cls-3" points="83.69 14.79 91.63 24 98.02 21.39 95.08 15 83.69 14.79"/></g></g></g></g></svg>