<svg xmlns="http://www.w3.org/2000/svg" viewBox="0 0 99.58 95"><defs><style>.cls-1,.cls-2,.cls-4,.cls-5{fill:none;}.cls-1,.cls-4{stroke:#ed1e79;}.cls-1,.cls-2,.cls-3,.cls-4,.cls-5,.cls-6,.cls-7,.cls-8{stroke-miterlimit:10;}.cls-1,.cls-5{stroke-width:2px;}.cls-2,.cls-3,.cls-6,.cls-7,.cls-8{stroke:#231f20;stroke-width:1.35px;}.cls-3{fill:#ee2b2f;}.cls-4{stroke-width:4px;}.cls-5{stroke:#000;}.cls-6{fill:#ff7bac;}.cls-7{fill:#d4145a;}.cls-8{fill:#9e005d;}</style></defs><title>calender</title><g id="Layer_2" data-name="Layer 2"><g id="ICONS"><g id="calender"><g id="outline"><rect class="cls-1" x="10.38" y="7.32" width="88.2" height="86.68" rx="3.09" ry="3.09"/><path class="cls-1" d="M13.4,8H94.88a3,3,0,0,1,3,3V24.52a0,0,0,0,1,0,0H10.38a0,0,0,0,1,0,0V11A3,3,0,0,1,13.4,8Z"/><path class="cls-1" d="M24.74,14.2c5.26-1.38,7.53-6.49,6.15-9.63-1.1-2.5-4.47-4-7.52-3.44a6.66,6.66,0,0,0-4.79,3.44c-1.28,2.62,0,2.75,0,4.13"/><path class="cls-1" d="M43.88,14.2c5.26-1.38,7.53-6.49,6.15-9.63-1.1-2.5-4.47-4-7.52-3.44a6.66,6.66,0,0,0-4.79,3.44C36.45,7.2,36.89,7.66,37,8"/><path class="cls-1" d="M62.34,14.2c5.26-1.38,7.53-6.49,6.15-9.63C67.4,2.07,64,.53,61,1.13a6.66,6.66,0,0,0-4.79,3.44C54.92,7.2,55.35,7.66,55.51,8"/><path class="cls-1" d="M81.49,14.2c5.26-1.38,7.53-6.49,6.15-9.63-1.1-2.5-4.47-4-7.52-3.44a6.66,6.66,0,0,0-4.79,3.44C74.06,7.2,74.49,7.66,74.65,8"/><path class="cls-1" d="M7,44.33A5,5,0,0,1,9.5,45.95l1.24-1.51a5,5,0,0,1,5.92-.57c2.3,1.41,2.6,4.41,2,6.29a5,5,0,0,1-.78,1.46L11.22,59.2l-8.4-6.13a5.11,5.11,0,0,1-1-1.29c-.84-1.49-1.33-4.16.34-6A4.89,4.89,0,0,1,7,44.33Z"/><path class="cls-1" d="M38.41,63.64a5,5,0,0,1,1.29,2.65l1.83-.66a5,5,0,0,1,5.39,2.55c1.27,2.39,0,5.13-1.48,6.42a4.93,4.93,0,0,1-1.41.86l-9.55,3.12L30.35,69a5.15,5.15,0,0,1-.24-1.64c0-1.72,1-4.26,3.36-5A4.89,4.89,0,0,1,38.41,63.64Z"/><path class="cls-1" d="M10.75,68.5a5.05,5.05,0,0,1,1.16,2.71l1.86-.57A5,5,0,0,1,19,73.45c1.15,2.45-.25,5.12-1.79,6.34a4.93,4.93,0,0,1-1.45.79L6.09,83.22,2.44,73.45a5.15,5.15,0,0,1-.16-1.65c.11-1.71,1.17-4.21,3.6-4.86A4.9,4.9,0,0,1,10.75,68.5Z"/></g><rect id="bckgrnd" class="cls-2" x="11.14" y="7.89" width="86.86" height="84.84" rx="3.03" ry="3.03"/><path id="top" class="cls-3" d="M14.11,8.57H94.36a3,3,0,0,1,3,3V24.73a0,0,0,0,1,0,0H11.14a0,0,0,0,1,0,0V11.54A3,3,0,0,1,14.11,8.57Z"/><g id="number"><g id="rings"><path class="cls-2" d="M25.28,14.63c5.18-1.35,7.42-6.35,6.06-9.43-1.08-2.44-4.4-4-7.41-3.37A6.56,6.56,0,0,0,19.22,5.2c-1.26,2.57,0,2.69,0,4"/><path class="cls-2" d="M44.14,14.63c5.18-1.35,7.42-6.35,6.06-9.43-1.08-2.44-4.4-4-7.41-3.37A6.56,6.56,0,0,0,38.08,5.2c-1.26,2.57-.83,3-.67,3.37"/><path class="cls-2" d="M62.31,14.63c5.18-1.35,7.42-6.35,6.06-9.43C67.3,2.76,64,1.24,61,1.83A6.56,6.56,0,0,0,56.25,5.2c-1.26,2.57-.83,3-.67,3.37"/><path class="cls-2" d="M81.17,14.63c5.18-1.35,7.42-6.35,6.06-9.43-1.08-2.44-4.4-4-7.41-3.37A6.56,6.56,0,0,0,75.11,5.2c-1.26,2.57-.83,3-.67,3.37"/></g><polyline id="_1_pink" data-name="1 pink" class="cls-4" points="39 47.81 47 41.81 46.56 70"/><polyline id="_4_pink" data-name="4 pink" class="cls-4" points="54 40 54 52 64 52 64 40 64 71"/><polyline id="_4_black" data-name="4 black" class="cls-5" points="54 41 54 52 64 52 64 41 64 70"/><polyline id="_1_black" data-name="1 black" class="cls-5" points="40 47 47 41.81 46.56 70"/></g><g id="hearts"><path class="cls-6" d="M7.86,44.12a4.92,4.92,0,0,1,2.42,1.58l1.22-1.47a4.92,4.92,0,0,1,5.83-.56C19.59,45,19.88,48,19.27,49.82a4.87,4.87,0,0,1-.77,1.43L12,58.67l-8.27-6a5,5,0,0,1-1-1.26A5.22,5.22,0,0,1,3,45.49,4.84,4.84,0,0,1,7.86,44.12Z"/><path class="cls-7" d="M38.75,63A4.93,4.93,0,0,1,40,65.6l1.8-.65a4.92,4.92,0,0,1,5.3,2.49c1.25,2.34,0,5-1.46,6.29a4.86,4.86,0,0,1-1.39.84l-9.4,3.05-4.06-9.38a5,5,0,0,1-.24-1.61,5.22,5.22,0,0,1,3.31-4.92A4.84,4.84,0,0,1,38.75,63Z"/><path class="cls-8" d="M11.51,67.77a4.93,4.93,0,0,1,1.14,2.65l1.83-.56a4.92,4.92,0,0,1,5.18,2.75c1.13,2.4-.25,5-1.77,6.21a4.87,4.87,0,0,1-1.43.77L6.92,82.18l-3.6-9.57A5,5,0,0,1,3.16,71a5.22,5.22,0,0,1,3.55-4.75A4.84,4.84,0,0,1,11.51,67.77Z"/></g></g></g></g></svg>