<svg xmlns="http://www.w3.org/2000/svg" viewBox="0 0 83.5 113.76"><defs><style>.cls-1{fill:#f2f2f2;}.cls-1,.cls-2,.cls-4{stroke:#000;stroke-miterlimit:10;stroke-width:4px;}.cls-1,.cls-2{stroke-linecap:round;}.cls-2{fill:#fccde0;}.cls-3{fill:#fff;}.cls-4{fill:#d4145a;}</style></defs><title>card</title><g id="Layer_2" data-name="Layer 2"><g id="ICONS"><g id="card"><polygon id="white_paper" data-name="white paper" class="cls-1" points="54 109.68 54.83 3.15 2 27.68 2 111.68 54 109.68"/><rect id="pink_paper" data-name="pink paper" class="cls-2" x="2.5" y="28.18" width="79" height="83"/><g id="around_heart" data-name="around heart"><path class="cls-3" d="M42.65,52.9c.39-1.85.63-4.13-.88-5.27a11,11,0,0,0-2.47-1c-1.43-.61-2.45-1.88-3.65-2.87s-2.89-1.72-4.28-1c-.32.16-.61.4-.93.55-2.16,1-5.22-1.44-6.92.25a11.38,11.38,0,0,0-1,1.49c-.88,1.2-2.49,1.52-3.92,2s-3,1.38-3.05,2.87c0,1,.59,2,.09,2.9-.36.62-1.21.85-1.53,1.49-.18.36-.16.8-.35,1.16s-.81.73-1.26,1a3.53,3.53,0,0,0-1.24,4c.43,1.18,1.47,2,2,3.19.82,1.79.23,3.92.75,5.81A5.23,5.23,0,0,0,17.47,73a5,5,0,0,1,1.9.74c1.56,1.35-.17,4.38,1.3,5.83,1.21,1.18,3.49.2,4.79,1.28C27,82.12,26.08,85.35,28,86c.69.24,1.5,0,2.17.25,1.92.81.34,4.39,2.06,5.56,1,.69,2.64.08,3.46,1s.28,2.16.95,3c1.06,1.31,3.34-.18,4.84.6.55.29.92.86,1.48,1.13a2.17,2.17,0,0,0,2.46-.66,4.83,4.83,0,0,0,1-2.51,2.39,2.39,0,0,1,.26-.93c.62-1,2.36-.54,3.06-1.47s-.11-2.16.34-3.13c.74-1.59,3.68-.7,4.53-2.23.45-.8,0-1.85.4-2.7.62-1.44,2.74-1.16,4.16-1.83a3,3,0,0,0,1.67-2.91c0-.5-.19-1,.1-1.46a1.44,1.44,0,0,1,.77-.47c.93-.3,1.92-.41,2.83-.78a3,3,0,0,0,2-2c.13-.68-.08-1.42.19-2.05.48-1.13,2-1.18,3.06-1.86a2.66,2.66,0,0,0,1-2.88A10.33,10.33,0,0,1,70.14,66c-.12-1,.6-1.85,1.17-2.67s1-2,.41-2.75c-.29-.38-.77-.57-1.08-.94-1-1.16.27-2.85.39-4.37a3,3,0,0,0-1.89-2.93,7.53,7.53,0,0,1-1.61-.54c-1.1-.71-1-2.33-1.45-3.54a3.42,3.42,0,0,0-3.52-2.06,3.82,3.82,0,0,1-1.22.1,2.54,2.54,0,0,1-1.22-.83A6.56,6.56,0,0,0,58,43.9a2.58,2.58,0,0,0-2.58.3c-.55.48-.8,1.23-1.38,1.68C52,47.37,49.22,44,47,45.1c-1.91.92-1.38,4.19-3.18,5.32"/><path class="cls-3" d="M43,53c.57-3.23.32-4.62-2.33-6.3-1.89-1.2-4.14-3.39-6.26-4.16-2.39-.86-6.6-.35-8.73.06-2,.37-.58-.18-2.36.62-.21.1-.89,1-.65.86-2.6,2-3,1.76-5.22,3-2.9,1.61-2.12,4.41-3.65,7-1.29,2.19-3.7,3.61-2.89,6.47.29,1,.95,1.3,1.38,2.21,1.7,3.57.59,2.92,1.13,5.24A7.53,7.53,0,0,0,16,72.72c.35.34,1,.32,1.33.63,5.93,5.34,1.33,1.72,2.28,4.35.35,1,0,1.37.83,2.18,1.61,1.57.72.21,1.26.6l1.29.13q3.07.61,3.19,3.15a7.51,7.51,0,0,0,1.55,2.58c.14.14,2,.71,1.28.16,5.47,4.2.61,1.52,2,4a6.07,6.07,0,0,0,1,1.7c.28.33,1,.17,1.35.41l2.5,2.37q.2.53.42,1.06a5.12,5.12,0,0,0,2.06.74,35.94,35.94,0,0,0,4.4,1.12c.67,0-.51.48,1.5.13a3.52,3.52,0,0,0,1.47-.92c1.66-1.62-.19-.8,1-2.6,3-4.44.59.35,2.46-1.69.76-.83.51-.91,1.14-1.78l2-2.93a5.19,5.19,0,0,0,1.73-.51s1.51-1.46.75-.68c.93-.95.48-2.8,2-3.8,1.21-.79,2.49-.25,3.53-1.52.49-.59.36-.86.64-1.21a3.05,3.05,0,0,1,2.16-3.09,6.66,6.66,0,0,0,1.45-.43c2.58-2.22.08.4,2.18-2.26v-.1a4.47,4.47,0,0,1,3.06-3.59c.23-.33.66-.56.87-.92.69-1.17.18-1.16.33-2.39.28-2.29,1.39-4.6,1-7,0-.08-.08-.1-.1-.17q-1.89-1.8-.84-3.78a8,8,0,0,0,.27-1.26c-.07-2-.92-2.09-2.08-3.26-.12-.12-1.7-.91-.92-.26-1.83-1.52-1.27-3.1-2.58-4.61-1-1.21-1.94-.87-3.27-1.32-1.71-.58-4-2.81-6-2.52-2.49.36-2.64,2.32-5.9,2-1.38-.15-2.43-1.23-3.87-.51-1.92,1-1.86,4-3.26,5.38a.38.38,0,0,0,.53.53c.75-.74.86-1.63,1.47-2.37,3.69-4.47,2.81-2.12,6.47-1.76a3.45,3.45,0,0,0,1.25,0c-1.48.4.81-.4,1-.43q1-1.82,3.16-.6a2.52,2.52,0,0,1,2.54.28,11.54,11.54,0,0,1,6.95,5.79c1.36,2.42,3.16-1.93,3.53,4.75.07,1.21-.3,2.17-.14,3.41,0,.06.09.12.1.17.93,6.66.21,1.33-.24,4.51-.09.62-.12,1.54-.23,2.1-.44,2.19-3.45,6.53-5.36,8.42-1.74,1.73-3,1.72-4.2,3.44-.62.9-1.14,2.89-2.48,3.68-.85.5-1.45.13-2.33.68-.41.26-.64.76-.94,1.09-1.77,2-.72,2.59-2,3.38-.4.25-1.09,0-1.46.32s-1,.53-1.45,1.08C49,89.5,49.1,91.3,48,92.31c.43-.4-2.1,1.2-1.72.93-1.82,1.3,1.5-.16-2.12,2.21-5.7,3.74.36.54-2.61.61A30.83,30.83,0,0,1,38.33,96c-1.87-.5-1.57-2.06-2.35-3.36-.27-.45-1.05-.39-1.36-.69-5.14-4.86-1.41-1.65-3.17-4.51A4.83,4.83,0,0,0,30.36,86c-1.54-1.8-.72,2.8-3.42-2.42-.51-1-.28-2.16-1.22-3-.39-.34-1-.35-1.39-.6L23,79.86l-2.6-3.25a5.91,5.91,0,0,0-.08-1.68c-.28-.42-.43-1-.75-1.49-.22-.31-.76-.29-1-.53l-4.18-3.57q-.18-1.79-.3-3.58c-.24-1.5-1.24-2.6-1.52-3.9-.5-2.4.47-4.33,1.55-6.3.59-1.06,1.38-1.78,1.91-2.74.23-.43-.07-1.17.12-1.55l2.57-3.9q.82-.22,1.63-.51c2.65-1.89,5-3.26,8.32-3,3.05.26,5-.27,8.46,1.71,2.75,1.59,5.77,3.73,5.16,7.21-.08.47.64.67.72.2Z"/></g><path id="heart" class="cls-4" d="M46.13,51.87c1.84-2.79,5.56-4,6.24-4.24,5.85-1.69,11,2,11.24,2.25a13.55,13.55,0,0,1,5,8c1,4.78-1.2,8.69-2.5,11s-1.92,2.54-13,13a118,118,0,0,0-9,9.45,12.66,12.66,0,0,0-.75,1C40.65,96.19,29.93,81.1,25.72,76.78c-.95-1-1.87-2-2.74-3-.35-.42-.66-.78-.82-.94l-1.34-1.35a32.6,32.6,0,0,1-4.16-5.64,9.74,9.74,0,0,1-1.53-3.9,8.44,8.44,0,0,1,0-2.09,16,16,0,0,1,3-7.49,13.86,13.86,0,0,1,7-4.49,14.16,14.16,0,0,1,10,.5,14.39,14.39,0,0,1,7.49,9c.73-1,.8-1.52,2-3.5C45.1,53.09,45.93,52.16,46.13,51.87Z"/></g></g></g></svg>