<svg xmlns="http://www.w3.org/2000/svg" viewBox="0 0 115.9 102.84"><defs><style>.cls-1,.cls-9{fill:none;}.cls-1{stroke:#ed1e79;stroke-width:6px;}.cls-1,.cls-2,.cls-3,.cls-4,.cls-5,.cls-6,.cls-7,.cls-8,.cls-9{stroke-miterlimit:10;}.cls-2{fill:#fee;}.cls-2,.cls-3,.cls-4,.cls-5,.cls-6,.cls-7,.cls-8,.cls-9{stroke:#000;stroke-width:2px;}.cls-3{fill:red;}.cls-4{fill:#fff3f3;}.cls-5{fill:#c1272d;}.cls-6{fill:#fff;}.cls-7{fill:#8e1e26;}.cls-8{fill:#d1bb6a;}</style></defs><title>dart</title><g id="Layer_2" data-name="Layer 2"><g id="ICONS"><g id="darts"><g id="outline"><path class="cls-1" d="M42.6,6.23a30.65,30.65,0,0,1,14,11.21L65,9A30.61,30.61,0,0,1,101.5,9c13.24,9.89,13.29,28.27,8.43,39.26a30.27,30.27,0,0,1-5.61,8.42L59.46,98.78,11.77,56.73a31.19,31.19,0,0,1-5.61-8.41c-4.29-9.53-5.71-26,5.6-36.46C20.23,4,32.68,2.42,42.6,6.23Z"/><path class="cls-1" d="M45.4,15.57a24.3,24.3,0,0,1,11.12,8.89l6.67-6.67a24.27,24.27,0,0,1,28.91,0c10.5,7.84,10.54,22.42,6.68,31.13a24,24,0,0,1-4.45,6.67L58.77,89,21,55.61a24.74,24.74,0,0,1-4.45-6.67C13.1,41.38,12,28.34,20.94,20A23.87,23.87,0,0,1,45.4,15.57Z"/><path class="cls-1" d="M48.13,23.9a17.9,17.9,0,0,1,8.19,6.55l4.91-4.92a17.88,17.88,0,0,1,21.29,0C90.26,31.3,90.29,42,87.45,48.46a17.68,17.68,0,0,1-3.27,4.92L58,78,30.12,53.39a18.22,18.22,0,0,1-3.28-4.91c-2.5-5.56-3.33-15.17,3.27-21.3A17.58,17.58,0,0,1,48.13,23.9Z"/><path class="cls-1" d="M50.33,30.43a13.42,13.42,0,0,1,6.14,4.91l3.68-3.69a13.4,13.4,0,0,1,16,0C81.92,36,81.94,44,79.81,48.84a13.25,13.25,0,0,1-2.45,3.68L57.71,70.95,36.83,52.54a13.66,13.66,0,0,1-2.46-3.68c-1.88-4.17-2.5-11.37,2.45-16A13.18,13.18,0,0,1,50.33,30.43Z"/><path class="cls-1" d="M52.71,37.89a8.3,8.3,0,0,1,3.8,3l2.28-2.28a8.29,8.29,0,0,1,9.87,0c3.58,2.68,3.6,7.65,2.28,10.63a8.19,8.19,0,0,1-1.52,2.28L57.28,62.95,44.37,51.56a8.45,8.45,0,0,1-1.52-2.28c-1.16-2.58-1.54-7,1.52-9.87A8.15,8.15,0,0,1,52.71,37.89Z"/><path class="cls-1" d="M54.09,43.52a4.72,4.72,0,0,1,2.16,1.73l1.3-1.3a4.71,4.71,0,0,1,5.61,0c2,1.52,2,4.35,1.3,6a4.66,4.66,0,0,1-.86,1.3l-6.91,6.48L49.34,51.3a4.8,4.8,0,0,1-.86-1.3,5,5,0,0,1,.86-5.62A4.64,4.64,0,0,1,54.09,43.52Z"/><polygon class="cls-1" points="87.56 38.3 99.04 30.11 89.84 27.38 90.08 18.46 78.59 26.65 78.52 34.78 87.56 38.3"/><line class="cls-1" x1="55.92" y1="48.94" x2="89.92" y2="26.94"/></g><g id="hearts"><path class="cls-2" d="M42.6,6.23a30.65,30.65,0,0,1,14,11.21L65,9A30.61,30.61,0,0,1,101.5,9c13.24,9.89,13.29,28.27,8.43,39.26a30.27,30.27,0,0,1-5.61,8.42L59.46,98.78,11.77,56.73a31.19,31.19,0,0,1-5.61-8.41c-4.29-9.53-5.71-26,5.6-36.46C20.23,4,32.68,2.42,42.6,6.23Z"/><path class="cls-3" d="M45.4,15.57a24.3,24.3,0,0,1,11.12,8.89l6.67-6.67a24.27,24.27,0,0,1,28.91,0c10.5,7.84,10.54,22.42,6.68,31.13a24,24,0,0,1-4.45,6.67L58.77,89,21,55.61a24.74,24.74,0,0,1-4.45-6.67C13.1,41.38,12,28.34,20.94,20A23.87,23.87,0,0,1,45.4,15.57Z"/><path class="cls-4" d="M48.13,23.9a17.9,17.9,0,0,1,8.19,6.55l4.91-4.92a17.88,17.88,0,0,1,21.29,0C90.26,31.3,90.29,42,87.45,48.46a17.68,17.68,0,0,1-3.27,4.92L58,78,30.12,53.39a18.22,18.22,0,0,1-3.28-4.91c-2.5-5.56-3.33-15.17,3.27-21.3A17.58,17.58,0,0,1,48.13,23.9Z"/><path class="cls-5" d="M50.33,30.43a13.42,13.42,0,0,1,6.14,4.91l3.68-3.69a13.4,13.4,0,0,1,16,0C81.92,36,81.94,44,79.81,48.84a13.25,13.25,0,0,1-2.45,3.68L57.71,70.95,36.83,52.54a13.66,13.66,0,0,1-2.46-3.68c-1.88-4.17-2.5-11.37,2.45-16A13.18,13.18,0,0,1,50.33,30.43Z"/><path class="cls-6" d="M52.71,37.89a8.3,8.3,0,0,1,3.8,3l2.28-2.28a8.29,8.29,0,0,1,9.87,0c3.58,2.68,3.6,7.65,2.28,10.63a8.19,8.19,0,0,1-1.52,2.28L57.28,62.95,44.37,51.56a8.45,8.45,0,0,1-1.52-2.28c-1.16-2.58-1.54-7,1.52-9.87A8.15,8.15,0,0,1,52.71,37.89Z"/><path class="cls-7" d="M54.09,43.52a4.72,4.72,0,0,1,2.16,1.73l1.3-1.3a4.71,4.71,0,0,1,5.61,0c2,1.52,2,4.35,1.3,6a4.66,4.66,0,0,1-.86,1.3l-6.91,6.48L49.34,51.3a4.8,4.8,0,0,1-.86-1.3,5,5,0,0,1,.86-5.62A4.64,4.64,0,0,1,54.09,43.52Z"/></g><polygon id="end_arrow" data-name="end arrow" class="cls-8" points="87.56 38.3 99.04 30.11 89.84 27.38 90.08 18.46 78.59 26.65 78.52 34.78 87.56 38.3"/><line id="line" class="cls-9" x1="55.92" y1="48.94" x2="89.92" y2="26.94"/></g></g></g></svg>