<svg xmlns="http://www.w3.org/2000/svg" viewBox="0 0 99.69 100.73"><defs><style>.cls-1{fill:#fffcf8;}.cls-2{fill:#231f20;}.cls-3{fill:#fcee21;stroke:#fbb03b;stroke-miterlimit:10;}.cls-4{fill:#ed1e79;}</style></defs><title>egg</title><g id="Layer_2" data-name="Layer 2"><g id="ICONS"><g id="eggs"><g id="bckgrnd"><path class="cls-1" d="M76.11,13.86c3,3.34,6.1,6.92,9.31,9.93C90,28.12,94.06,33.3,96,39.33s1.49,13-2.13,18.21c-3.32,4.76-9,7.72-11.49,13-1.49,3.13-1.65,6.7-2.43,10.08-2.1,9.19-10,17.47-19.41,17.65-4.19.08-8.24-1.36-12.18-2.79L34,90.25c-5.42-2-10.93-4-15.56-7.4s-8.36-8.55-8.72-14.3c-.24-3.79,1-7.65.15-11.36-1-4.6-4.9-8-6.54-12.45C1.37,39.48,3,33.35,6.43,29s8.62-7.22,14-9c4.44-1.44,9.25-2.28,12.91-5.17,2-1.59,3.55-3.71,5.37-5.53A24.3,24.3,0,0,1,60.41,2.81c7.71,1.61,13,8.68,18.67,14.39"/><path class="cls-2" d="M75,14.92c6.23,7,14.5,13.36,18.39,22.06,2.11,4.71,2.95,10.22,1.32,15.22s-5.46,8-9.09,11.58a20.44,20.44,0,0,0-5.4,7.92c-1.51,4.45-1.43,9.18-3.55,13.47-5.13,10.37-14.87,13.27-25.43,9.73-9.62-3.23-20.46-6.24-29.22-11.44-4.3-2.55-8.37-6.27-10-11.12-1.56-4.53-.05-8.94-.43-13.54-.73-8.85-9.9-13.61-6.9-23.35C8,24.56,19,22.56,28.27,19.14,37.1,15.87,41,6.58,50.56,4.42,63.08,1.61,70.17,10.23,78,18.26c1.35,1.38,3.47-.74,2.12-2.12C73.61,9.46,67.51,1.62,57.49.9A26,26,0,0,0,44.54,3.39C39.77,5.65,37.19,9.3,33.4,12.75c-4.57,4.14-11,4.65-16.47,6.93A28.51,28.51,0,0,0,5.37,27.89C-.87,35.72.55,43.8,5.53,51.65c2,3.14,3.17,5.75,3.07,9.56-.07,2.7-.59,5.34-.31,8A19.79,19.79,0,0,0,13.13,80c7.2,8.47,19.41,11.35,29.43,15,9.84,3.56,19.77,7.71,29.16.82A25.37,25.37,0,0,0,79.6,86c2.55-5.48,1.92-12,5.47-17,3.16-4.45,8.15-7.22,10.91-12A22.31,22.31,0,0,0,98.18,42C96,29.68,85,21.63,77.17,12.8c-1.28-1.45-3.4.68-2.12,2.12Z"/></g><path id="yoke" class="cls-3" d="M30.16,34.12a8.74,8.74,0,0,1,4.9,1.5l1.35-3.12a8.73,8.73,0,0,1,9.67-3.83c4.55,1.23,6.49,6.1,6.36,9.53a8.63,8.63,0,0,1-.6,2.82L44.36,56.89,27.29,50.75a8.9,8.9,0,0,1-2.37-1.64c-2.14-2.08-4.24-6.29-2.35-10.26A8.59,8.59,0,0,1,30.16,34.12Z"/><g id="outline"><path class="cls-4" d="M76.63,13.25C83.47,21,92.75,28,96.51,37.81a23,23,0,0,1,.89,14.63c-1.59,5.25-5.35,8.46-9.15,12.11a23.33,23.33,0,0,0-5.32,6.77c-1.94,4.14-1.79,8.87-3.3,13.15-3.95,11.17-14.33,17-25.76,14-5-1.32-9.8-3.41-14.63-5.15-5.37-1.94-10.89-3.69-16-6.26-4.5-2.25-8.74-5.31-11.48-9.62C8.29,72,9.46,67,9.44,61c0-9.08-9.23-14.46-7.67-23.9,2.1-12.7,14.44-15.87,24.75-19.44a23.66,23.66,0,0,0,10.13-6.82C40.71,6.47,45.19,3.19,51.18,2c13-2.6,20.4,6.41,28.54,14.72.68.69,1.74-.37,1.06-1.06C74.18,8.91,68,.82,57.83.07A26.15,26.15,0,0,0,45.49,2.22C39.77,4.72,37,9.37,32.22,13.06S21.35,17.29,16,19.54A28.72,28.72,0,0,0,4.19,28,19,19,0,0,0,0,40.94c.4,5.22,3.73,8.68,6.09,13.1,3,5.6.59,11.23,1.54,17.12a21.18,21.18,0,0,0,6.77,11.78c8.41,7.84,21.31,10.71,31.83,14.5,9.53,3.44,18.69,5.76,27.11-1.36a26,26,0,0,0,7.17-9.91c2.42-5.86,1.7-12.43,5.87-17.57,3.29-4.06,7.93-6.85,10.6-11.44a21.94,21.94,0,0,0,2.45-13.74C97.77,30.12,86,21.54,77.69,12.19c-.64-.72-1.7.34-1.06,1.06Z"/></g></g></g></g></svg>