<svg xmlns="http://www.w3.org/2000/svg" viewBox="0 0 126.5 94.5"><defs><style>.cls-1{fill:#fccde0;}.cls-1,.cls-2,.cls-3,.cls-4{stroke:#000;stroke-miterlimit:10;stroke-width:4px;}.cls-1,.cls-2,.cls-3{stroke-linecap:round;}.cls-2{fill:#ed1e79;}.cls-3{fill:#9e005d;}.cls-4{fill:#ff7bac;}</style></defs><title>envelop</title><g id="Layer_2" data-name="Layer 2"><g id="ICONS"><g id="evelope"><rect id="backgrd" class="cls-1" x="2" y="2" width="122.5" height="90.5"/><polygon id="left" class="cls-2" points="63.5 58.41 3.5 91 3.5 5 63.5 58.41"/><polyline id="right" class="cls-2" points="123.02 92.5 62.5 59 123.02 2.28"/><polyline id="top" class="cls-3" points="123.52 2.94 63.75 59.06 2 2.94"/><polyline id="botoom" class="cls-2" points="2.4 91.5 62.21 42.5 124 91.5"/><path id="heart" class="cls-4" d="M65.56,38.85a8.79,8.79,0,0,1,4.47-3c4.19-1.21,7.84,1.46,8,1.61a9.7,9.7,0,0,1,3.58,5.72c.7,3.42-.86,6.22-1.79,7.87s-1.38,1.82-9.3,9.3a84.47,84.47,0,0,0-6.47,6.76,9.07,9.07,0,0,0-.54.75c-1.92,2.78-9.6-8-12.61-11.12-.68-.69-1.34-1.41-2-2.15-.25-.3-.47-.56-.59-.67l-1-1a23.34,23.34,0,0,1-3-4,7,7,0,0,1-1.09-2.79,6.05,6.05,0,0,1,0-1.5,11.42,11.42,0,0,1,2.15-5.36,9.92,9.92,0,0,1,5-3.22,10.13,10.13,0,0,1,7.15.36,10.3,10.3,0,0,1,5.36,6.44c.52-.71.57-1.09,1.43-2.5C64.83,39.73,65.42,39.07,65.56,38.85Z"/></g></g></g></svg>