<svg xmlns="http://www.w3.org/2000/svg" viewBox="0 0 115.41 98.85"><defs><style>.cls-1{fill:#ff1d25;stroke:#000;stroke-miterlimit:10;stroke-width:4px;}</style></defs><title>heart</title><g id="Layer_2" data-name="Layer 2"><g id="ICONS"><path id="heart" class="cls-1" d="M66.33,11.71c3.81-5.79,11.53-8.39,12.94-8.8C91.4-.6,102,7.12,102.55,7.57A28.09,28.09,0,0,1,112.9,24.13c2,9.91-2.49,18-5.17,22.77-2.6,4.59-4,5.26-26.91,26.91A244.56,244.56,0,0,0,62.1,93.39a26.22,26.22,0,0,0-1.56,2.16C55,103.58,32.75,72.29,24,63.35c-2-2-3.88-4.07-5.68-6.22-.73-.87-1.37-1.62-1.7-1.95-2.39-2.39-2.42-2.44-2.77-2.8A67.54,67.54,0,0,1,5.27,40.69c-2.27-3.94-2.92-6-3.16-8.08a17.5,17.5,0,0,1,.06-4.34A33.07,33.07,0,0,1,8.37,12.74,28.72,28.72,0,0,1,22.86,3.43c2.62-.78,11.34-3.26,20.7,1,11.6,5.33,15,16.86,15.52,18.63,1.51-2.06,1.66-3.15,4.14-7.24C64.2,14.24,65.93,12.32,66.33,11.71Z"/></g></g></svg>