<svg xmlns="http://www.w3.org/2000/svg" viewBox="0 0 116.21 80.31"><defs><style>.cls-1{fill:#ff1d25;stroke:#000;stroke-miterlimit:10;stroke-width:4px;}</style></defs><title>lips</title><g id="Layer_2" data-name="Layer 2"><g id="ICONS"><g id="lips"><path id="lower" class="cls-1" d="M30.89,71.76A16,16,0,0,0,34,74.93c4.2,3.21,8.12,2.84,21.91,3.17,7.31.18,9.29.35,13.56,0,6.78-.56,9.35-1.63,10.43-2.12,1.48-.67,3.74-1.91,8.35-6.35a96.4,96.4,0,0,0,9.39-10.58c8.11-10.43,8.55-14.21,13.56-18,.6-.45,2.21-1.62,2-2.12s-3.39.53-6.63,1.06c-4.42.72-7.72.05-13.27-1.06C87,37.7,83.77,37,80,34.72c-2.79-1.72-8.2-5.82-12.16-6.35a6.77,6.77,0,0,0-2.21,0c-2.32.41-2.53,1.82-4.42,2.12a7.85,7.85,0,0,1-4.42-1.06,11.61,11.61,0,0,0-2.21-1.06c-1.22-.33-3.35-1.23-4.42-1.06-3,.49-6.76,2.71-7.74,3.17C38,32.6,39.66,32,35.79,33.66a49.57,49.57,0,0,1-8.84,3.17c-2.28.54-2.28.31-12.16,1.06-6.17.46-8.07.7-11.06,0C1.3,37.32,23.44,62,30.89,71.76Z"/><path id="upper" class="cls-1" d="M2.2,37.31c3-5,19.4-14.14,35-30,1.8-1.83,5-5.24,9-5,3.61.22,5.16,3.23,11,4a16.41,16.41,0,0,0,5,0s2-.32,8-3a7.19,7.19,0,0,1,2-1c11.34-3.52,24.69,24.17,40,33,.68.39,2.09,1.17,2,2-.27,2.42-13.18,5.19-25,2A81.57,81.57,0,0,1,78.5,35.54c-6.2-3-9.3-4.48-10.29-5.23a4.42,4.42,0,0,0-2-1c-2.39-.42-3.45,1.88-6,2-2.06.1-2.45-1.36-5-2-2.75-.69-5.2.27-7,1-5.12,2.08-8.06,3.28-16.11,6.77-1.68.73-2.52,1.09-2.89,1.23-12,4.64-26.92,2.62-27.2-.24A1.23,1.23,0,0,1,2.2,37.31Z"/></g></g></g></svg>