<svg xmlns="http://www.w3.org/2000/svg" viewBox="0 0 111.65 136.77"><defs><style>.cls-1{fill:#ed1e79;}.cls-1,.cls-2,.cls-3{stroke:#000;stroke-miterlimit:10;stroke-width:4px;}.cls-2{fill:gray;}.cls-3{fill:#fff;}.cls-4{fill:#202020;}</style></defs><title>lock</title><g id="Layer_2" data-name="Layer 2"><g id="ICONS"><g id="lock"><path id="heart" class="cls-1" d="M64.16,52.5c3.68-5.6,11.14-8.11,12.5-8.5,11.72-3.39,21.93,4.07,22.5,4.5a27.14,27.14,0,0,1,10,16c2,9.58-2.4,17.4-5,22-2.51,4.44-3.85,5.08-26,26a236.27,236.27,0,0,0-18.09,18.92,25.34,25.34,0,0,0-1.51,2.08C53.18,141.27,31.71,111,23.29,102.4c-1.89-1.94-3.74-3.93-5.48-6-.7-.84-1.32-1.56-1.64-1.88-2.31-2.31-2.34-2.36-2.68-2.7A65.27,65.27,0,0,1,5.16,80.5C3,76.69,2.34,74.67,2.1,72.69a16.91,16.91,0,0,1,.05-4.19,32,32,0,0,1,6-15,27.75,27.75,0,0,1,14-9c2.54-.75,11-3.15,20,1,11.21,5.15,14.52,16.29,15,18,1.46-2,1.6-3,4-7C62.1,54.95,63.77,53.1,64.16,52.5Z"/><path id="handel" class="cls-2" d="M20.7,42.6c.9.35,1.72-.67,3.77-1.18a10.48,10.48,0,0,1,3.94-.08c5.7.61,8.27,1.07,10.42,1.07,2.43,0-1.24-3.88-.14-9.84A17.06,17.06,0,0,1,46.4,21.3C53.54,16.93,61.3,19.84,61.83,20c6.88,2.71,9.34,8.91,10.28,11.27C74.19,36.56,71,40.87,73.4,42.6c1.14.82,2,.07,6.43,0,5.79-.09,7.39,1.13,9,0,.86-.61,2.2-2.22,1.29-8.77-.82-5.85-1.94-13.92-9-21.3a35.54,35.54,0,0,0-19.28-10A36.83,36.83,0,0,0,38.69,6.27,38.63,38.63,0,0,0,25.84,17.54a38.93,38.93,0,0,0-6.43,21.3C19.42,39.76,19.51,42.14,20.7,42.6Z"/><path id="key_hole" data-name="key hole" class="cls-3" d="M61.16,90.73c-.16.3,2.72,7.38,2,9-.47,1.06-2.66,1-7,1-4,0-7,0-8-1-1.29-1.29,3.5-4.09,3.5-7.5,0-1-1-2-2-3A7.87,7.87,0,0,1,48.17,87c-1.92-3-3.12-4.89-2.76-7,0-.26.42-2.33,2-3s3.56.66,4,1c2.38,1.86,2.6,5.08,3,5s-.7-3.71,1-6a4.68,4.68,0,0,1,4-2c2.7.28,3.89,3.68,4,4,1,2.89-.27,6.35-3,9Z"/><g id="scratch"><path d="M81.82,57.45q4.87,10,9.21,20.21"/><path class="cls-4" d="M90.87,77.72s.07,0,0,0h-.09Z"/><path class="cls-4" d="M90.93,77.46a.19.19,0,0,0-.19,0c.09,0,.06,0,.16,0s0,.06,0,.07,0,.05.06,0,0-.11,0-.14S90.91,77.47,90.93,77.46Z"/><path class="cls-4" d="M89.8,74.52v0A0,0,0,0,0,89.8,74.52Z"/><path class="cls-4" d="M89.07,72.71h0Z"/><path class="cls-4" d="M89,72.37v0S89,72.37,89,72.37Z"/><path class="cls-4" d="M89.8,74.52v-.06S89.8,74.49,89.8,74.52Z"/><path class="cls-4" d="M90.57,77.14l0,0,0,0Z"/><path class="cls-4" d="M90.21,75.28h0Z"/><path class="cls-4" d="M90.48,75.88s-.07,0-.1,0h.06Z"/><path class="cls-4" d="M90.78,76.89h0Z"/><path class="cls-4" d="M90,74.84l0,0Z"/><path class="cls-4" d="M81.86,58.28h0Z"/><polygon class="cls-4" points="81.83 57.44 81.84 57.45 81.88 57.43 81.83 57.44"/><path class="cls-4" d="M88.85,71.77h0S88.86,71.78,88.85,71.77Z"/><path class="cls-4" d="M86.51,66.68c0,.08-.12-.06-.14.06S86.5,66.77,86.51,66.68Z"/><path class="cls-4" d="M90.58,77.12v0Z"/><polygon class="cls-4" points="86.37 66.74 86.37 66.74 86.37 66.75 86.37 66.74"/><path class="cls-4" d="M88.24,70.5l0,0Z"/><path class="cls-4" d="M88.58,71.5v0A.06.06,0,0,0,88.58,71.5Z"/><path class="cls-4" d="M87.93,70s0,0,0,0h0S87.94,70,87.93,70Z"/><polygon class="cls-4" points="87.7 69.53 87.69 69.55 87.7 69.56 87.7 69.53"/><path class="cls-4" d="M82.64,59.81l0-.05S82.59,59.72,82.64,59.81Z"/><path class="cls-4" d="M90.61,77.12h0v0Z"/><path class="cls-4" d="M87.42,70.25l0-.09A.36.36,0,0,0,87.42,70.25Z"/><path class="cls-4" d="M84.38,63.47l0,0Z"/><path class="cls-4" d="M87.27,69.93a.14.14,0,0,0,0-.07h0Z"/><path class="cls-4" d="M82.68,59.76h0Z"/><path class="cls-4" d="M82.27,59.3c0,.08.1,0,.15,0s0,.07-.07.12.15.05.16.1,0,0,0,0,.09.18.21.21l0,0,.11-.07s.08,0,0,.08,0,0-.05,0l0,0c-.06.07-.05,0-.11,0s.16.11.17.17-.09-.11-.12,0v-.1c-.09.12,0-.05-.12.07s.1.1.13.23.06,0,.11,0-.13.22,0,.28.17,0,.16.08h-.1c0,.11.15,0,.15.14s-.07-.07-.07,0,.07,0,.1.08l-.07,0c.07.11.18.21.26.33s-.06,0-.07,0a1.09,1.09,0,0,1,.18.52l.09,0s0,0,0,0,0,0,.08,0,0,.06,0,.05.26.24.25.39h0c0,.1.18,0,.16.14h0c.06.2.22.38.19.57.11,0,0,.21.18.16,0,.14-.05.12,0,.29s.11,0,.15.06l-.07,0,.11,0-.07.08,0,0a.06.06,0,0,1,0-.06.18.18,0,0,1,0,.22l.14.15s-.05,0-.08,0-.07.05,0,.11,0,0,.06,0a.27.27,0,0,0,.07.22h-.05c0,.13.15.26.22.41,0-.06.09-.09.12-.05l-.07.05c.06,0,0-.06.09,0s-.07.08-.11.06l.06.05s0,0-.07,0,0,.15.08.15h0c.07.14.12.2.18.31s.07,0,.14,0a1.1,1.1,0,0,0,.07.32c.07.06.06,0,.12,0s0,.13-.07.1a1.23,1.23,0,0,0,.21.29s0-.05,0-.05a.06.06,0,0,1,0,.09h0c.17.14,0,.49.21.57h0l.13.12c0,.07-.06,0-.08,0,.17.11.1.26.23.36-.13.18.18.35.13.54l0,0c.06,0,0,.05,0,.08s0-.05.05,0a3.73,3.73,0,0,1,.32,1c0,.12.24,0,.21.15h-.09c.19.19.21.46.38.65,0,0,0,0-.06,0s.08.17.12.16,0,0,0,.06.12.09.08.14,0,0,0,0,.06.15.11.09c0,.1.1.15.09.23s0,.16.14.13c-.11,0,0,.18.05.21s0,.06-.06.06.07.11.12.07c-.07.17.2.18.07.31a3.7,3.7,0,0,1,.34.45c-.11,0-.09-.17-.19-.12.11.13.24.18.28.34s-.05,0-.08,0,.12.3.24.41l0,0s0,.07.06,0l0,0c0-.07.19,0,.23,0-.15,0,0,.15-.18.15a.07.07,0,0,0,.08,0s0,0-.06,0,.1,0,.14.12,0,0-.07,0,.13,0,.14.13,0,0,0,0,.21.16.23.32c-.12,0,0,.06-.09.11l.06.06,0,0c0,.07.11.1.11.16l-.06,0,.07.12v-.08c.07,0,.11-.05.12,0s0,.07,0,.12h0s.08,0,.08.1-.1,0-.11,0,.09.14.18.15a.12.12,0,0,0-.08,0H89s0,0-.05.06.1-.08.1.05h0c0,.12.13.19.14.31s-.06-.08-.12,0,.23.25.27.4v0c.13,0,0,.13.07.18s-.08,0-.06,0,.11.18.22.31h0a1.14,1.14,0,0,0,.06.22s0,0,.09,0c-.1.26.25.32.17.55,0,0,0,0,0,0l.09.13s0,0,.05-.08a.13.13,0,0,1,.1.07c-.06,0-.08,0-.1.08l.05,0c-.06.11.11,0,.09.09h0s.08.05.09.09,0,0-.1,0,.16.06.13.14,0-.05-.07-.07,0,.09,0,.13h0v.08c.19,0,.09.13.24.19-.14-.05-.06,0-.14,0s0,.08,0,.08,0,.1.1.12,0,0,0,.06,0,0,.06,0,0,.25.16.34.18.08.26.17-.09,0-.09,0a.16.16,0,0,0,.06.16s0,0-.05,0,.09,0,.09.07H90.6l.15.12s-.07,0-.11,0,.1.14.17.13v0s0,0-.07,0,0-.08,0-.1l0,0c.12-.09-.09-.14-.11-.22h.11l-.11,0s.07-.06.1,0-.05,0,0-.1h0l-.05,0s.06,0,.06,0c0-.12-.14-.12-.08-.19h0c-.09-.12-.08,0-.2,0l.14-.14-.08,0s0,0,0-.05,0,0-.08,0-.11-.17,0-.23c-.06,0,0,.08-.08,0,.11-.07-.06-.07,0-.16s.06.06.09,0c-.12,0,0-.13-.07-.17s-.08-.1-.15-.17,0-.18,0-.27h0c-.09,0-.11-.07-.15-.12a.11.11,0,0,1,.11,0l0-.06a.1.1,0,0,1-.08,0h.07c0-.07-.14-.12-.14-.23s-.13.15-.21.06.08,0,.11,0,0,0,0,0L90,75c0-.05-.05,0-.06,0s0,0,.06-.05,0,0,0,0a.17.17,0,0,1,0-.13s-.06,0-.08,0,0,0,0-.1,0-.07-.1,0,0,0,0-.06-.09-.18-.14-.1h0c-.12-.1-.07-.28-.16-.39h0c-.06-.06-.09-.16-.16-.19a.07.07,0,0,1,0-.07s-.07,0-.07-.14,0,0,.05,0c0-.08,0-.11-.08-.17.07,0,0-.09,0-.12l0,.07a.33.33,0,0,1,0-.11h.08c0-.19-.28-.2-.17-.39-.07,0,0,.1-.08.09s.06-.19,0-.22-.15,0-.16-.15a.1.1,0,0,1-.15,0c0-.07.08-.14.12-.1s0,0,0,0,0,0,.06,0h0s0-.14,0-.14-.05,0-.05,0c0-.11-.06-.14-.07-.24s0,0,0,0-.08,0-.13-.12.11,0,0-.1.07,0,.1,0,0-.17,0-.22l0,0a.15.15,0,0,1,0-.06l0,0s0-.05,0-.06-.08.06-.15,0-.08-.09,0-.14c0,.12.07,0,.12,0a.09.09,0,0,1,0-.07h0c0-.13-.1,0-.15-.12s.07-.06,0-.07-.06.05-.11,0-.06-.06-.07-.1v0s-.06,0-.09-.08,0,0,0,0,0-.15-.06-.21.07,0,.08-.08,0-.11-.07-.18,0,0-.11,0l.1.13-.12-.06s.08.08.08.11,0,0-.08,0-.1-.1-.08-.19l.14-.06c0-.13-.15-.15-.18-.3v.05c-.06,0,0-.08-.09-.11s.05-.05.07-.08,0-.1-.14-.07l0-.09c0-.12-.18-.07-.21-.18s.07-.05.14,0,0-.07-.05-.06-.1-.07-.08-.12-.08,0-.09,0h0s-.06,0-.09,0c.09-.17-.14-.29-.07-.44a1.93,1.93,0,0,1-.14-.22s0,0,0,0-.16,0-.16-.13.07,0,.08,0-.08-.12,0-.23h0c0-.08-.12-.11-.15-.21h0a.54.54,0,0,1-.24-.21c.07,0,0,0,.1,0s-.09.05-.14,0,0-.11.08-.14l0,.07c.06-.07,0-.09,0-.14h0c-.06-.11-.15-.07-.2-.19l0,0c-.12,0,0-.08-.07-.11l.08-.06a1.26,1.26,0,0,1-.21-.18.72.72,0,0,1,.23.13s-.07-.14-.13-.15,0,0,0,0a.27.27,0,0,1-.2-.16c.18-.06-.06-.24,0-.37-.13-.12-.11-.32-.2-.49-.11.12,0-.05-.16,0s0-.05,0-.06l0-.16s0,0,.08,0,0-.07.05-.14-.09,0-.09-.06l0,.1c-.13-.09.07-.16-.07-.26l.06,0c-.06-.05-.11-.24-.25-.25,0,0,0-.05.06,0-.06-.16-.28-.29-.27-.45h0s-.09,0-.07-.07,0,0,0,0-.1,0-.09-.1l.05,0c0-.17-.2-.19-.28-.31.1,0,.08-.18.07-.25h0c-.07-.18-.22-.26-.34-.41.06-.15-.12-.37-.13-.56,0,0-.08,0-.1,0s-.12-.07,0-.11h0c.08-.07,0-.14,0-.2l-.12,0c.1-.24-.26-.39-.15-.55,0,0-.07-.07-.12-.1l.07,0a1,1,0,0,0-.13-.3h.06c0-.08-.23,0-.27-.08l.09-.07c-.06-.13,0-.3-.19-.39,0,0,0,0,.06,0s0-.27-.17-.18c.08,0-.06-.14-.13-.19l.07,0c-.11,0-.13,0-.19-.09s0,0,0,0-.08,0-.09-.12H84c0-.07,0-.05-.11-.07a.12.12,0,0,1,0-.17s-.1,0-.11-.06a0,0,0,0,1,0,0c0-.13-.15-.13-.13-.24l0,0a.79.79,0,0,1,.06.16c.06,0,0-.1.14-.09-.07,0-.21-.09-.22-.18l0,0h0a.05.05,0,0,0,0,0,.17.17,0,0,0,0-.07s0-.1,0-.13-.07,0-.11.05l0,0h0l0,.09s-.09,0-.07-.09h-.13c.06-.09.07-.21.12-.25s-.15-.25-.3-.26,0-.05,0-.07,0,0,.05,0-.1-.18-.19-.16.1,0,0-.09h0c0-.28-.38-.24-.32-.56,0,0,0,0,0,0-.05-.31-.34-.52-.35-.84,0-.09-.07-.07-.13-.1l.06,0-.12,0c-.11-.08.07-.27-.1-.36l0,0c0-.05-.11-.15,0-.16s-.06,0,0,0l0,0-.12-.1c0-.11.15-.05.09-.2s-.18-.1-.19-.07a.07.07,0,0,1,0,.08l0,0c-.11,0-.23.06-.25.21l.1.05,0,.05,0-.07c0,.06,0,.07.07.08a.1.1,0,0,0,0,.06l.14,0s-.1,0-.1.07.07-.08.13,0-.07.07,0,.1a.05.05,0,0,1-.07,0c.05,0,.07.1.13.1s.08.13,0,.18a.23.23,0,0,1,.14.07c-.15,0,.06.14-.07.19.13,0,.14.16.24.22s0,0,0,0,0,.09,0,.13.15,0,.22,0-.12,0-.19.07.12.07.17,0,0,.05-.07.11c.11,0,0,0,.13,0s-.09.07,0,.13S82.27,59.3,82.27,59.3ZM83.33,61h0l0,0Zm.07.15,0-.07s0,0,.05,0S83.41,61.13,83.4,61.16Zm.29-.53s0,0,0,0l0,0h0Z"/><path class="cls-4" d="M83.59,60.63h0v0h0Z"/><polygon class="cls-4" points="89.8 74.54 89.8 74.54 89.8 74.55 89.8 74.54"/><polygon class="cls-4" points="84.27 63.31 84.29 63.31 84.27 63.3 84.27 63.31"/><path class="cls-4" d="M89.95,75.49v0Z"/><path class="cls-4" d="M90.09,75.86v.06A.24.24,0,0,0,90.09,75.86Z"/><path class="cls-4" d="M90.18,76.16h0Z"/><path class="cls-4" d="M88.16,71.71h0Z"/><path class="cls-4" d="M88.89,73l0,0S88.86,73,88.89,73Z"/><polygon class="cls-4" points="87.42 70.26 87.42 70.26 87.42 70.25 87.42 70.26"/><path class="cls-4" d="M88.82,72.88a.07.07,0,0,0,0,.06A.1.1,0,0,0,88.82,72.88Z"/><polygon class="cls-4" points="90.67 77.39 90.68 77.41 90.69 77.41 90.67 77.39"/><path class="cls-4" d="M90.69,77.41h0Z"/><path class="cls-4" d="M90.73,77.44l0,0S90.71,77.44,90.73,77.44Z"/><path class="cls-4" d="M90.55,77h0Z"/><path class="cls-4" d="M90.49,76.9s0,.09,0,.12h0S90.54,76.91,90.49,76.9Z"/><path class="cls-4" d="M90.58,76.3l0,.1s0-.06.07,0C90.69,76.23,90.62,76.43,90.58,76.3Z"/><path class="cls-4" d="M90.49,76s0,0,.05,0S90.49,75.94,90.49,76Z"/><path class="cls-4" d="M89.57,73.85l.06,0S89.6,73.84,89.57,73.85Z"/><polygon class="cls-4" points="89.09 73.58 89.07 73.63 89.13 73.63 89.09 73.58"/><polygon class="cls-4" points="89.4 73.16 89.42 73.17 89.36 73.11 89.4 73.16"/><path class="cls-4" d="M87.8,69.6l-.07,0S87.84,69.63,87.8,69.6Z"/><path class="cls-4" d="M87,68.09s0-.09,0-.1S87,68.08,87,68.09Z"/><polygon class="cls-4" points="85.03 63.45 85.07 63.47 85.03 63.42 85.03 63.45"/><path d="M85.05,55.16q5.18,10.28,10.52,20.49"/><path class="cls-4" d="M95.43,75.72s.06,0,0-.05l-.08,0Z"/><path class="cls-4" d="M95.46,75.45a.19.19,0,0,0-.19,0c.09,0,.06,0,.17,0a0,0,0,0,1,0,.07s0,.05.06,0,0-.12-.06-.15S95.45,75.45,95.46,75.45Z"/><path class="cls-4" d="M94.08,72.48v0A0,0,0,0,0,94.08,72.48Z"/><path class="cls-4" d="M93.2,70.66h0Z"/><path class="cls-4" d="M93.12,70.31v0S93.13,70.31,93.12,70.31Z"/><path class="cls-4" d="M94.08,72.48v-.06S94.08,72.46,94.08,72.48Z"/><path class="cls-4" d="M95.08,75.14l0,0,0,0Z"/><path class="cls-4" d="M94.55,73.25h0Z"/><path class="cls-4" d="M94.88,73.85s-.07,0-.1,0h.06Z"/><path class="cls-4" d="M95.26,74.87h0Z"/><path class="cls-4" d="M94.34,72.8l0,0Z"/><path class="cls-4" d="M85.12,56h0Z"/><polygon class="cls-4" points="85.07 55.15 85.08 55.16 85.12 55.14 85.07 55.15"/><path class="cls-4" d="M92.91,69.71h0S92.92,69.72,92.91,69.71Z"/><path class="cls-4" d="M90.22,64.57c0,.09-.12-.06-.14.06S90.22,64.66,90.22,64.57Z"/><path class="cls-4" d="M95.08,75.12v0Z"/><path class="cls-4" d="M90.08,64.63h0Z"/><path class="cls-4" d="M92.21,68.43l0,0Z"/><path class="cls-4" d="M92.62,69.44v0A.06.06,0,0,0,92.62,69.44Z"/><path class="cls-4" d="M91.87,68s0,0,0,0h0S91.87,68,91.87,68Z"/><polygon class="cls-4" points="91.6 67.46 91.59 67.47 91.6 67.49 91.6 67.46"/><path class="cls-4" d="M86,57.58l0-.05S85.92,57.49,86,57.58Z"/><path class="cls-4" d="M95.11,75.12h0v0Z"/><path class="cls-4" d="M91.36,68.21l0-.09A.39.39,0,0,0,91.36,68.21Z"/><path class="cls-4" d="M87.9,61.32l0,0Z"/><path class="cls-4" d="M91.19,67.88a.14.14,0,0,0,0-.07h0Z"/><path class="cls-4" d="M86,57.53h0Z"/><path class="cls-4" d="M85.58,57.06c0,.08.1,0,.16,0s0,.07-.06.13.15.05.17.1,0,0,0,0,.1.18.22.21l0,0a.37.37,0,0,1,.11-.07s.09,0,0,.08,0,0-.05,0l0,0c-.06.07-.05,0-.11,0s.17.11.18.18-.09-.12-.12,0l0-.1c-.09.13,0-.06-.12.07s.1.11.14.23.06,0,.11,0-.13.22,0,.29.17,0,.16.08h-.1c0,.11.16,0,.16.14s-.07-.07-.07,0,.08,0,.1.08l-.07.05c.07.11.19.21.27.33s-.06,0-.07,0a1.18,1.18,0,0,1,.2.53l.1,0s0,0,0,0,0,0,.08,0a0,0,0,0,1,0,.05c.11.08.28.25.27.4h0c0,.1.19,0,.17.14h0c.07.21.24.39.22.58.11,0,.06.21.19.16,0,.14,0,.12,0,.3s.11,0,.15.06l-.07,0,.11,0-.06.08,0,0a.06.06,0,0,1,0-.06.18.18,0,0,1,0,.23l.15.15s-.05,0-.08,0-.06.05,0,.11,0,0,.06,0a.29.29,0,0,0,.09.23h-.05c.06.14.16.26.24.41,0-.06.08-.09.11-.05l-.06.05c.06,0,0-.06.09,0s-.06.08-.1.06l.06.05s0,0-.07,0,0,.15.08.15h0c.07.15.13.2.2.32s.07,0,.14,0a1.17,1.17,0,0,0,.09.32c.07.06.06,0,.12,0s0,.14-.06.1a1.33,1.33,0,0,0,.22.29s0-.05,0-.05a.06.06,0,0,1,0,.09h0c.18.14,0,.5.24.59h0l.14.12c0,.07-.06,0-.07,0,.18.11.12.26.25.36-.12.19.2.36.16.55l0,0c.06,0,0,.05,0,.09s0-.06,0,0a4.05,4.05,0,0,1,.39,1c0,.12.24,0,.22.15h-.09c.21.18.24.47.43.66,0,0,0,0-.06,0s.09.18.13.16,0,0,0,.06.13.08.09.14,0,0,0,0,.07.15.11.09c0,.1.11.15.11.23s0,.16.15.13c-.1,0,0,.19.07.22s0,.06-.06.06.08.11.13.07c-.06.17.21.18.09.32a4,4,0,0,1,.38.45c-.1,0-.1-.17-.2-.11.12.13.25.18.31.34s-.06,0-.08,0,.14.3.27.41l0,0s0,.07.06,0l0,0c0-.08.19,0,.23,0-.15,0,0,.15-.17.16a.07.07,0,0,0,.08,0s0,0-.06,0,.11,0,.15.11,0,0-.07,0,.13,0,.15.13,0,0,0,0,.23.16.26.32c-.12,0,0,.06-.09.11l.06.06,0-.05c0,.07.12.09.12.16l-.06,0,.08.12v-.09c.08,0,.1-.06.12,0s0,.07,0,.13h0s.09,0,.09.1-.1,0-.11.05.1.14.19.15a.11.11,0,0,0-.07,0h.07s0,0,0,.06.09-.08.1,0h0c0,.12.14.19.17.31s-.07-.08-.12,0,.25.25.31.4v0c.13,0,0,.13.09.18s-.08,0-.06,0,.13.18.24.31h0a1.22,1.22,0,0,0,.08.23s.05,0,.09,0c-.08.28.28.31.22.55,0,0-.05,0,0,0l.1.13s0,0,0-.09a.13.13,0,0,1,.1.07c-.07,0-.08,0-.1.09l.05,0c-.05.12.11,0,.1.09h0s.09,0,.1.09,0,0-.1,0,.17.05.14.14l-.08-.07c0,.09,0,.09,0,.14h0l0,.11v0c.19,0,.1.13.25.18-.14,0-.06,0-.13,0s0,.08,0,.08,0,.1.11.12,0,.05,0,.07,0,0,.06,0,0,.26.19.34.18.08.27.16-.09,0-.09,0a.17.17,0,0,0,.08.16s0,0-.05,0,.09,0,.09.06h-.11l.16.11s-.07,0-.11,0,.11.14.18.12v0s0,0-.06,0,0-.08,0-.1l0,0c.11-.11-.1-.14-.13-.22l.11,0-.12,0s.06-.07.09,0-.06,0,0-.1h0l-.05,0s.06,0,.06,0c0-.12-.15-.12-.1-.19h0c-.1-.12-.07,0-.2,0l.13-.15-.07,0s0,0,0-.05,0,0-.08,0-.12-.17,0-.24c-.06,0,0,.08-.08,0,.11-.08-.06-.07,0-.16s.07.06.09,0,0-.13-.08-.17-.09-.09-.16-.16,0-.18,0-.28h0c-.09,0-.12-.06-.16-.11a.1.1,0,0,1,.11,0l0-.06a.1.1,0,0,1-.08,0l.07,0c0-.07-.15-.11-.16-.23s-.12.16-.21.08.08-.05.11,0,0,0,0,0h.07c0-.06-.05,0-.07,0s0,0,.06-.06,0,0,0,0a.17.17,0,0,1,0-.14s-.06,0-.08,0,0-.05,0-.11,0-.07-.1,0,0,0,0-.06-.1-.18-.15-.1h0c-.13-.09-.1-.28-.19-.39h0c-.06-.06-.1-.16-.17-.19a.07.07,0,0,1,0-.08s-.07,0-.08-.14,0,0,.06,0c0-.08,0-.12-.09-.17.07,0,0-.09,0-.12v.07a.35.35,0,0,1-.05-.11l.08,0c0-.2-.29-.2-.2-.39-.07,0,0,.1-.07.1s0-.2,0-.23-.15,0-.18-.15a.09.09,0,0,1-.15,0c0-.08.07-.14.11-.11s0,0,0,0,0,0,.06,0h0s0-.14,0-.14-.05,0,0,0c0-.11-.07-.14-.09-.25s0,.05,0,0-.08,0-.14-.12.11,0,0-.11.06,0,.1,0,0-.17-.06-.23l0,0a.16.16,0,0,1,0-.06l0,.05s0-.05,0-.06-.08.07-.15,0-.08-.09,0-.14c0,.12.06,0,.12,0a.1.1,0,0,1,0-.07h0c0-.14-.1,0-.16-.12s.06-.06,0-.08-.05.05-.11,0-.06-.06-.08-.1v0s-.06,0-.1-.07,0,0,0,0,0-.16-.08-.21.07,0,.07-.08,0-.12-.08-.19,0,.05-.11,0l.11.13L92.37,69s.08.08.09.11-.05,0-.08,0-.11-.1-.09-.19l.13-.07c0-.13-.16-.15-.2-.3v.06c-.06,0-.05-.08-.09-.11s0-.05.07-.09,0-.1-.14-.07l0-.09c0-.12-.19-.06-.23-.17s.07-.06.14,0,0-.07-.06-.06-.11-.07-.08-.12-.08,0-.09,0h0s-.06,0-.09,0c.08-.18-.17-.3-.1-.45a2.07,2.07,0,0,1-.15-.22s0,0,0,0-.16,0-.17-.13.07,0,.08,0-.09-.12,0-.24h0c0-.08-.13-.11-.16-.21h0a.56.56,0,0,1-.26-.21c.07,0,.05,0,.1,0s-.09.06-.14,0,0-.11.07-.15l0,.07c.06-.08-.05-.09-.06-.14h0c-.07-.11-.16-.06-.21-.19l0,0c-.12,0,0-.08-.08-.12l.08-.07a1.33,1.33,0,0,1-.22-.18.75.75,0,0,1,.24.12s-.08-.15-.14-.15.05,0,0,0a.28.28,0,0,1-.21-.16c.18-.07-.07-.25,0-.38-.14-.12-.13-.32-.23-.5-.1.13,0-.05-.16,0s0-.05,0-.06l0-.17c0-.05.05,0,.08,0s0-.07,0-.15-.09,0-.09-.06l0,.11c-.14-.09.06-.17-.08-.26l.06,0c-.06-.05-.12-.25-.27-.25,0,0,0-.05.06,0-.07-.17-.3-.29-.29-.45h0s-.09,0-.07-.07,0,0,0,0-.1,0-.1-.1h.05c0-.18-.21-.19-.3-.31.1,0,.07-.19.05-.26h0c-.08-.19-.24-.26-.36-.41.05-.16-.14-.37-.16-.57,0,0-.08,0-.1,0s-.12-.07,0-.11h0c.07-.07,0-.14,0-.21l-.12,0c.09-.25-.28-.4-.18-.57,0,0-.07-.07-.12-.1l.06,0a1.06,1.06,0,0,0-.15-.3h.06c0-.08-.23,0-.27-.07l.08-.07c-.07-.13-.06-.31-.21-.4,0,0,0,0,.06,0s-.06-.28-.18-.19c.08,0-.06-.14-.14-.19l.07,0c-.11,0-.13,0-.2-.09s0,0,0,0-.09,0-.09-.12h.06c0-.07,0-.06-.11-.07a.13.13,0,0,1,0-.18s-.1,0-.11-.06a0,0,0,0,1,0,0c0-.14-.16-.13-.14-.25l0,0a.85.85,0,0,1,.07.16c.06,0,0-.11.14-.09-.07,0-.22-.09-.23-.18v0h0a.06.06,0,0,0,0,0,.18.18,0,0,0,0-.07s0-.1,0-.14-.08,0-.1.05l0,0h0l.05.09s-.09,0-.08-.09h-.13c.06-.09.06-.22.11-.26s-.16-.25-.31-.26,0-.05,0-.08,0,0,.05,0-.11-.18-.2-.16.1,0,0-.1h0c0-.28-.39-.25-.35-.58,0,0,0,0,0,0-.07-.31-.36-.53-.38-.86,0-.09-.07-.07-.14-.1l.06-.05-.12,0c-.12-.09.06-.28-.12-.37l0,0c0-.06-.11-.15-.05-.17s-.06,0,0,0l0,0-.13-.1c0-.11.15-.06.08-.2s-.18-.1-.19-.07a.07.07,0,0,1,0,.09l0,0c-.11,0-.23.06-.24.22l.11.05,0,.05,0-.07c0,.06,0,.07.07.08a.09.09,0,0,0,0,.06l.14,0s-.1,0-.09.07.07-.08.14,0-.07.07,0,.1a.05.05,0,0,1-.07,0c.05,0,.07.1.14.1s.09.13,0,.18a.24.24,0,0,1,.14.07c-.15,0,.07.15-.07.19.13,0,.14.16.25.23s0,0,0,0,0,.09,0,.13.15,0,.23,0-.12,0-.19.07.13.08.18,0,0,.05-.06.12c.11,0,0,0,.13,0s-.09.07,0,.13S85.58,57.06,85.58,57.06Zm1.14,1.75h0l0,0Zm.08.15,0-.07s0,0,.05,0S86.81,58.93,86.8,59Zm.27-.55s0,0,0,0l0,0h0Z"/><path class="cls-4" d="M87,58.41h0v0h0Z"/><polygon class="cls-4" points="94.08 72.51 94.08 72.51 94.08 72.52 94.08 72.51"/><polygon class="cls-4" points="87.78 61.16 87.8 61.16 87.77 61.15 87.78 61.16"/><path class="cls-4" d="M94.31,73.48v0Z"/><path class="cls-4" d="M94.49,73.85v.06A.26.26,0,0,0,94.49,73.85Z"/><path class="cls-4" d="M94.6,74.15h0Z"/><path class="cls-4" d="M92.21,69.68h0Z"/><path class="cls-4" d="M93,70.95l-.05,0S93,71,93,70.95Z"/><polygon class="cls-4" points="91.37 68.22 91.37 68.22 91.36 68.21 91.37 68.22"/><path class="cls-4" d="M93,70.86a.07.07,0,0,0,0,.06A.11.11,0,0,0,93,70.86Z"/><polygon class="cls-4" points="95.2 75.4 95.21 75.41 95.22 75.41 95.2 75.4"/><path class="cls-4" d="M95.22,75.41h0Z"/><path class="cls-4" d="M95.27,75.44l0,0S95.24,75.44,95.27,75.44Z"/><path class="cls-4" d="M95,75h0Z"/><path class="cls-4" d="M95,74.89S95,75,95,75h0S95,74.9,95,74.89Z"/><path class="cls-4" d="M95,74.27l0,.11s0-.07.06,0C95.11,74.19,95.06,74.4,95,74.27Z"/><path class="cls-4" d="M94.89,74s0,0,0,0S94.89,73.91,94.89,74Z"/><path class="cls-4" d="M93.79,71.82l.06,0S93.83,71.8,93.79,71.82Z"/><polygon class="cls-4" points="93.29 71.56 93.27 71.62 93.33 71.61 93.29 71.56"/><polygon class="cls-4" points="93.57 71.11 93.58 71.12 93.53 71.06 93.57 71.11"/><path class="cls-4" d="M91.7,67.52l-.06,0S91.74,67.55,91.7,67.52Z"/><path class="cls-4" d="M90.83,66s0-.09,0-.1S90.81,66,90.83,66Z"/><polygon class="cls-4" points="88.55 61.29 88.59 61.31 88.54 61.26 88.55 61.29"/><path d="M88.57,52.73a214.32,214.32,0,0,1,11.82,19.59"/><path class="cls-4" d="M100.24,72.39s.06,0,0-.05l-.08,0Z"/><path class="cls-4" d="M100.27,72.12a.19.19,0,0,0-.19,0c.09,0,.06,0,.17,0a0,0,0,0,1,0,.07s0,.05.06,0,0-.12-.06-.14S100.26,72.13,100.27,72.12Z"/><path class="cls-4" d="M98.83,69.21v0A0,0,0,0,0,98.83,69.21Z"/><path class="cls-4" d="M97.89,67.43h0Z"/><path class="cls-4" d="M97.8,67.09v0S97.81,67.09,97.8,67.09Z"/><path class="cls-4" d="M98.83,69.21v-.06S98.83,69.18,98.83,69.21Z"/><path class="cls-4" d="M99.88,71.82l0,0,0,0Z"/><path class="cls-4" d="M99.32,70h0Z"/><path class="cls-4" d="M99.66,70.55s-.07,0-.1,0h.06Z"/><path class="cls-4" d="M100.06,71.55h0Z"/><path class="cls-4" d="M99.1,69.52l0,0Z"/><path class="cls-4" d="M88.74,53.57h0Z"/><polygon class="cls-4" points="88.59 52.72 88.6 52.73 88.63 52.7 88.59 52.72"/><path class="cls-4" d="M97.57,66.5h0S97.58,66.5,97.57,66.5Z"/><path class="cls-4" d="M94.59,61.55c0,.09-.12,0-.13.07S94.59,61.64,94.59,61.55Z"/><path class="cls-4" d="M99.88,71.8v0Z"/><path class="cls-4" d="M94.45,61.62h0Z"/><path class="cls-4" d="M96.81,65.26l0,0Z"/><path class="cls-4" d="M97.26,66.25v0A.06.06,0,0,0,97.26,66.25Z"/><path class="cls-4" d="M96.44,64.83s0,0,0,0h0S96.44,64.81,96.44,64.83Z"/><polygon class="cls-4" points="96.14 64.32 96.14 64.34 96.15 64.36 96.14 64.32"/><path class="cls-4" d="M89.75,55l0-.06S89.69,54.93,89.75,55Z"/><path class="cls-4" d="M99.92,71.8h0v0Z"/><path class="cls-4" d="M95.95,65.09l0-.09Z"/><path class="cls-4" d="M92,58.52h0Z"/><path class="cls-4" d="M95.76,64.77a.14.14,0,0,0,0-.07h0Z"/><path class="cls-4" d="M89.79,55h0Z"/><path class="cls-4" d="M89.31,54.55c0,.07.1,0,.15,0s0,.08,0,.13.16,0,.18.08,0,0,0,0,.12.17.24.19v0a.37.37,0,0,1,.1-.08s.09,0,0,.07,0,0-.06,0l0,0c-.05.08-.06,0-.11,0s.18.09.19.16-.1-.1-.12,0l0-.1c-.07.13,0-.05-.11.08s.11.09.16.21.05,0,.11,0-.1.23.07.28.16-.05.17.06l-.1,0c.06.11.15,0,.17.12s-.08-.06-.08,0,.08,0,.11.07l-.06.06c.08.1.21.19.3.3s-.06,0-.06,0a1.14,1.14,0,0,1,.26.5l.1,0s0,0,0,0,0,0,.08,0a0,0,0,0,1,0,.06c.12.07.3.22.3.36h0c0,.1.19,0,.18.13h0c.09.2.27.36.27.56.11,0,.07.2.21.14,0,.14,0,.13,0,.3s.11,0,.16,0l-.06,0,.11,0-.06.08,0,0a.06.06,0,0,1,0-.07.18.18,0,0,1,0,.22l.16.13s-.06,0-.09,0c.12,0-.06.06.05.1s0,0,.06,0a.29.29,0,0,0,.1.22l-.05,0c.07.13.19.25.27.39,0-.06.07-.1.11-.06l-.06.06c.06,0,0-.06.09,0s-.06.08-.1.07l.06,0s0,0-.07,0,0,.15.1.14l0,0c.09.14.15.19.22.3s.08,0,.14,0a1.16,1.16,0,0,0,.11.31c.07.05.06,0,.12,0s0,.14-.06.11a1.31,1.31,0,0,0,.24.27s0-.05,0-.06a.06.06,0,0,1,0,.09h0c.19.12.09.49.28.56h0l.15.11c0,.07-.06,0-.07.05.18.1.13.25.27.34-.1.2.22.34.2.53l0,0c.06,0,0,.05,0,.08s0-.06,0,0a3.91,3.91,0,0,1,.45.95c.05.11.23-.06.23.14H95c.22.17.27.45.46.62,0,0,0,0-.06,0s.1.17.14.15,0,0,0,.06.13.08.1.13,0,0,0,0,.08.14.12.08c0,.1.12.14.12.22s0,.16.15.12c-.1.05,0,.19.08.21s0,.06-.06.07.08.1.13.06c-.05.18.22.16.11.31a3.9,3.9,0,0,1,.4.43c-.1.05-.11-.17-.21-.1.13.13.26.16.32.32s-.05,0-.08,0c.13.13.16.29.29.4h0s0,.07.06,0l0,0c0-.08.19,0,.23,0-.15,0,0,.15-.16.17a.07.07,0,0,0,.08,0s0,0-.06,0,.11,0,.15.11,0,0-.07,0,.13,0,.16.12,0,0,0,0,.23.15.27.3c-.12,0,0,.06-.08.12l.07.06,0-.05c0,.06.13.09.13.16l-.06,0,.08.11v-.09c.08,0,.1-.07.12,0s0,.06,0,.12h0s.09,0,.1.09-.1,0-.11.06.1.14.2.14a.11.11,0,0,0-.07,0h.07s0,0,0,.06.09-.09.1,0h0c0,.12.15.19.18.3s-.07-.07-.12,0,.26.24.32.38v0c.13,0,0,.13.09.17s-.08,0-.06,0,.13.18.25.3h0a1.21,1.21,0,0,0,.08.22s.05,0,.09,0c-.07.28.29.3.23.54,0,0-.05,0,0,0l.1.12s0,0,0-.09a.13.13,0,0,1,.1.06c-.07,0-.08,0-.09.09l0,0c-.05.12.11,0,.1.09h0s.09,0,.1.09,0,0-.1,0,.17.05.14.13l-.08-.06c0,.09,0,.09,0,.14h0l0,.11v0c.19,0,.11.13.26.17-.15,0-.06,0-.13,0s0,.08,0,.08,0,.1.11.12,0,0,0,.07,0,0,.06,0,0,.26.2.34.19.07.28.16-.09,0-.09,0a.17.17,0,0,0,.08.15s0,0,0,0,.09,0,.09.06h-.11l.16.11s-.07,0-.11,0,.12.13.18.12v0s0,0-.06,0,0-.08,0-.1l0,0c.11-.11-.1-.14-.13-.22l.11,0-.12,0s.06-.07.09,0-.06,0,0-.1h0l-.06,0s.06,0,.06,0c0-.12-.15-.11-.1-.19h0c-.1-.11-.07,0-.21,0l.13-.16-.07,0s0,0,0-.05,0,0-.08,0-.13-.16,0-.24c-.06,0,0,.08-.08,0,.1-.08-.06-.07,0-.16s.07.06.09,0,0-.13-.09-.17-.09-.09-.16-.16,0-.18-.06-.27h0c-.09,0-.12-.06-.17-.11a.11.11,0,0,1,.11,0l0-.05a.1.1,0,0,1-.08,0l.07,0c0-.07-.15-.11-.16-.22s-.11.16-.21.08.08-.05.1,0,0,0,0,0h.07c0-.06-.05,0-.07,0s0,0,.05-.06,0,0,0,0a.17.17,0,0,1,0-.14s-.06,0-.08,0,0-.05,0-.11,0-.06-.1,0,0,0,0-.06-.11-.17-.15-.09h0c-.13-.09-.11-.28-.2-.38h0c-.07-.06-.1-.15-.18-.18a.07.07,0,0,1,0-.08s-.07,0-.08-.14,0,0,.06,0c0-.08,0-.12-.1-.16.07,0,0-.09,0-.12v.07a.35.35,0,0,1-.06-.11l.08,0c0-.2-.3-.18-.22-.38-.07,0,0,.1-.07.1s0-.2,0-.22-.15,0-.18-.14a.09.09,0,0,1-.15,0c0-.07.06-.15.11-.11s0,0,0,0,0,0,.06,0h0s0-.14,0-.14-.05,0,0,0c0-.11-.08-.14-.1-.24s0,.05,0,0-.08,0-.14-.11.1,0,0-.11.06-.05.1,0-.05-.17-.07-.22l0,0a.16.16,0,0,1-.05-.06l0,.05s0-.05,0-.06-.07.07-.15,0-.09-.09,0-.14c0,.12.06-.05.12,0a.09.09,0,0,1,0-.06h0c0-.14-.1,0-.16-.11s.06-.07,0-.08-.05.06-.1,0-.06-.06-.08-.1v0s-.06,0-.1-.07,0,0,0,0,0-.16-.08-.2.07,0,.07-.08,0-.12-.09-.18,0,.05-.11,0l.12.12-.13,0s.08.07.09.1-.05,0-.08,0-.11-.09-.1-.19l.13-.07c0-.13-.17-.14-.21-.29v.05c-.06,0-.05-.08-.1-.11s0-.06.06-.09-.05-.1-.14-.06l0-.09c0-.12-.19,0-.24-.16s.07-.06.14,0,0-.07-.06-.05-.11-.06-.09-.12-.07,0-.09,0h0s-.06,0-.09,0c.07-.18-.18-.29-.12-.44a2,2,0,0,1-.17-.21s0,0,0,0-.16,0-.17-.12.07,0,.08,0-.09-.12-.05-.23h0c0-.08-.13-.1-.17-.19h0a.57.57,0,0,1-.27-.19c.07,0,.05,0,.1,0s-.08.06-.14,0,0-.11.06-.16l0,.07c.05-.08-.06-.09-.07-.14l0,0c-.08-.1-.16-.05-.23-.18l0,0c-.12,0,0-.08-.09-.11l.07-.07a1.32,1.32,0,0,1-.23-.17.74.74,0,0,1,.24.11s-.09-.14-.15-.14.05,0,0,0a.28.28,0,0,1-.22-.14c.17-.08-.09-.24,0-.38-.15-.11-.15-.31-.27-.47-.09.14,0,0-.16,0s0-.05,0-.06v-.17c0-.05.05,0,.08,0s0-.07,0-.15-.09,0-.1-.05l0,.11c-.14-.08,0-.17-.1-.25h.06c-.06,0-.14-.23-.28-.23,0,0,0-.06.06,0-.08-.16-.32-.27-.33-.42h0s-.09,0-.08-.07,0,0,0,0-.1,0-.11-.09h.06c0-.17-.23-.17-.32-.28.09-.06.05-.19,0-.26h0c-.1-.18-.26-.24-.39-.38,0-.16-.17-.36-.21-.55,0,0-.08,0-.1,0s-.13-.06,0-.11h0c.07-.08,0-.14,0-.2l-.12.06c.06-.26-.32-.37-.23-.54-.05,0-.08-.07-.13-.09l.06,0a1.05,1.05,0,0,0-.17-.29h.06c0-.07-.23,0-.28,0l.08-.08c-.08-.13-.09-.3-.25-.37,0,0,0,0,.06,0s-.09-.27-.2-.17c.08-.05-.08-.13-.15-.18l.07,0c-.11,0-.13,0-.21-.06s0,0,0,0-.09,0-.11-.11h.06c0-.07-.05,0-.12-.06a.13.13,0,0,1,0-.18s-.1,0-.11,0a0,0,0,0,1,0,0c0-.13-.17-.12-.16-.23a.06.06,0,0,0,0,0,.83.83,0,0,1,.09.15c.05,0,0-.11.13-.1-.08,0-.23-.07-.25-.15v0h0a.06.06,0,0,0,0,0,.18.18,0,0,0,0-.07s0-.1,0-.13-.08,0-.1.06l0,0h0l.06.08s-.09,0-.08-.08h-.13c.05-.1,0-.22.08-.27s-.18-.23-.34-.23,0-.06,0-.08,0,0,.06,0-.13-.17-.21-.13.1,0,0-.1h0c0-.28-.42-.2-.41-.53,0,0,0,0,0,0-.1-.3-.42-.49-.48-.81,0-.09-.08-.06-.15-.08l.05-.06-.12,0c-.12-.07,0-.29-.16-.35l0,0c0-.05-.13-.14-.07-.16s-.05,0,0,0l0,0-.14-.08c0-.11.14-.07.06-.21s-.19-.08-.2,0a.07.07,0,0,1,0,.09l0,0c-.1.06-.22.09-.22.25l.11,0,0,.06,0-.06c0,.07,0,.06.08.07a.1.1,0,0,0,0,.07h.14s-.1,0-.08.08.06-.09.13-.05-.06.08,0,.1a.05.05,0,0,1-.07,0c.06,0,.08.09.15.08s.1.12,0,.18a.24.24,0,0,1,.15.05c-.15,0,.08.14,0,.2.13,0,.16.15.27.19s0,0,0,0,0,.09,0,.13.15,0,.23,0-.12,0-.18.1.13.06.18,0,0,.05,0,.12c.11-.06,0,0,.13,0s-.08.08,0,.13S89.31,54.55,89.31,54.55Zm1.31,1.6h0l0,0Zm.1.14,0-.06s0,0,.05,0S90.72,56.26,90.72,56.29Zm.21-.57s0,0,0,0l0,0h0Z"/><path class="cls-4" d="M90.82,55.73h0v0h0Z"/><polygon class="cls-4" points="98.83 69.24 98.83 69.23 98.83 69.25 98.83 69.24"/><polygon class="cls-4" points="91.89 58.37 91.91 58.36 91.89 58.36 91.89 58.37"/><path class="cls-4" d="M99.08,70.19v0Z"/><path class="cls-4" d="M99.27,70.56v.06A.25.25,0,0,0,99.27,70.56Z"/><path class="cls-4" d="M99.39,70.85h0Z"/><path class="cls-4" d="M96.86,66.5h0Z"/><path class="cls-4" d="M97.75,67.72l-.05,0S97.71,67.74,97.75,67.72Z"/><polygon class="cls-4" points="95.95 65.1 95.95 65.09 95.95 65.09 95.95 65.1"/><path class="cls-4" d="M97.66,67.63a.07.07,0,0,0,0,.06A.11.11,0,0,0,97.66,67.63Z"/><polygon class="cls-4" points="100.01 72.08 100.02 72.09 100.03 72.09 100.01 72.08"/><path class="cls-4" d="M100,72.09h0Z"/><path class="cls-4" d="M100.07,72.12l0,0S100.05,72.12,100.07,72.12Z"/><path class="cls-4" d="M99.84,71.69h0Z"/><path class="cls-4" d="M99.77,71.58s0,.09,0,.12h0S99.83,71.59,99.77,71.58Z"/><path class="cls-4" d="M99.8,71l0,.1s0-.07.06,0C99.9,70.88,99.86,71.09,99.8,71Z"/><path class="cls-4" d="M99.68,70.65s0,0,0,0S99.68,70.6,99.68,70.65Z"/><path class="cls-4" d="M98.52,68.56l.06,0S98.56,68.54,98.52,68.56Z"/><polygon class="cls-4" points="98.01 68.32 98 68.38 98.06 68.36 98.01 68.32"/><polygon class="cls-4" points="98.27 67.86 98.29 67.87 98.23 67.82 98.27 67.86"/><path class="cls-4" d="M96.25,64.38l-.06.05S96.29,64.41,96.25,64.38Z"/><path class="cls-4" d="M95.29,62.93s0-.09,0-.1S95.27,62.92,95.29,62.93Z"/><polygon class="cls-4" points="92.67 58.42 92.72 58.44 92.66 58.4 92.67 58.42"/><path d="M81.22,64.37a16.87,16.87,0,0,0,5.91-3.56l9.91-8"/><path class="cls-4" d="M97.15,52.91s0-.06-.06,0l0,.08Z"/><path class="cls-4" d="M96.9,52.92a.21.21,0,0,0,.08.18c0-.08,0-.06,0-.16s.06,0,.07,0,0,0,0-.06-.11,0-.11.07S96.91,52.93,96.9,52.92Z"/><path class="cls-4" d="M94.65,54.57h0Z"/><path class="cls-4" d="M93.27,55.63a0,0,0,0,0,0,0S93.27,55.62,93.27,55.63Z"/><path class="cls-4" d="M93,55.74h0Z"/><path class="cls-4" d="M94.65,54.57H94.6S94.63,54.58,94.65,54.57Z"/><path class="cls-4" d="M96.73,53.31a.06.06,0,0,0,0,0v0Z"/><path class="cls-4" d="M95.2,54h0v0Z"/><path class="cls-4" d="M95.65,53.66s0,.06,0,.09a.07.07,0,0,1,0-.06Z"/><path class="cls-4" d="M96.45,53.18v0Z"/><path class="cls-4" d="M94.87,54.29l0,0Z"/><path class="cls-4" d="M82,64.47h0A0,0,0,0,0,82,64.47Z"/><polygon class="cls-4" points="81.21 64.35 81.22 64.34 81.21 64.31 81.21 64.35"/><path class="cls-4" d="M92.51,56h0S92.51,56,92.51,56Z"/><path class="cls-4" d="M88.68,59.18c.08,0,0,.12.09.12S88.76,59.16,88.68,59.18Z"/><path class="cls-4" d="M96.71,53.32l0,0Z"/><polygon class="cls-4" points="88.77 59.3 88.77 59.3 88.78 59.3 88.77 59.3"/><path class="cls-4" d="M91.57,56.83l0,0Z"/><path class="cls-4" d="M92.35,56.32h0Z"/><path class="cls-4" d="M91.25,57.21s0,0,0,0h0S91.24,57.21,91.25,57.21Z"/><polygon class="cls-4" points="90.86 57.53 90.88 57.53 90.89 57.52 90.86 57.53"/><path class="cls-4" d="M83.4,63.8l-.05,0S83.32,63.85,83.4,63.8Z"/><path class="cls-4" d="M96.7,53.28s0,0,0,0h0Z"/><path class="cls-4" d="M91.59,57.65l-.07,0Z"/><path class="cls-4" d="M86.41,61.75v0A0,0,0,0,0,86.41,61.75Z"/><path class="cls-4" d="M91.34,57.85h-.07v0Z"/><path class="cls-4" d="M83.34,63.76h0Z"/><path class="cls-4" d="M82.94,64.15c.07,0,0-.1,0-.15s.07,0,.12.07,0-.14.08-.16,0,0,0,0,.16-.08.18-.2l0,0a.42.42,0,0,1-.07-.11s0-.08.07,0,0,0,0,.05l0,0c.07.06,0,.05,0,.11s.09-.16.15-.17-.1.09,0,.12h-.09c.12.09,0,0,.07.11s.09-.1.2-.13,0-.06,0-.11.21.12.26,0,0-.16.05-.16l0,.1c.1,0,0-.15.11-.15s-.06.07,0,.07,0-.07.06-.1l.05.07c.09-.07.16-.19.26-.27s0,.06,0,.06a.92.92,0,0,1,.44-.22v-.09s0,0,0,0,0,0,0-.08.06,0,.06,0,.17-.28.3-.28v0c.09,0,0-.18.09-.17v0c.17-.08.29-.26.47-.26,0-.1.18-.07.09-.2.13,0,.12,0,.27,0s0-.11,0-.15l0,.06v-.11l.08.05,0,0a.06.06,0,0,1-.06,0,.15.15,0,0,1,.2,0l.09-.16s0,.05,0,.08.06.05.08-.06,0,0,0-.05.14,0,.18-.11l0,0c.11-.07.19-.19.3-.28-.06,0-.1-.07-.08-.1l.06.05c0-.06-.05,0,0-.08s.09,0,.08.09l0-.06s0,0,0,.06.14,0,.11-.1l0,0c.11-.09.14-.15.23-.23s0-.07,0-.14a.88.88,0,0,0,.26-.12c0-.07,0-.06,0-.11s.12,0,.11,0a1,1,0,0,0,.2-.25s-.05,0-.06,0,.07,0,.08,0h0c.07-.18.43-.11.45-.3h0l.07-.14c.06,0,0,.06.06.06.05-.18.2-.14.25-.28.2.08.26-.23.44-.22l0,0c0-.06,0,0,.07,0s-.05,0-.05,0a3,3,0,0,1,.77-.48c.09-.06-.1-.22.08-.22l0,.09c.11-.22.35-.28.47-.48,0,0,0,0,0,.06s.13-.1.1-.14,0,0,.07,0,0-.13.1-.1,0,0,0,0,.11-.08,0-.12.1-.12.18-.13.13-.06.07-.15c.07.09.17,0,.17-.09s.06,0,.07,0,.07-.09,0-.13c.17,0,.1-.22.26-.12a3,3,0,0,1,.3-.41c.07.09-.13.12,0,.21.09-.13.09-.26.22-.33s0,.05,0,.07c.09-.13.23-.17.29-.3s0,0,0,0,.06,0,0-.06v0c-.08,0,0-.19,0-.22.06.14.12-.05.19.14a.07.07,0,0,0,0-.07s0,0,0,0,0-.1.06-.15,0,0,0,.07,0-.13.07-.16,0,0,0,0,.08-.23.21-.28c0,.11.06,0,.12.07l0-.07-.05,0c.05,0,.05-.13.11-.14v.06l.08-.09h-.07c0-.08-.08-.09,0-.12s0,0,.11,0h0s0-.09.06-.1.06.09.08.1.1-.11.08-.2a.13.13,0,0,0,0,.07l0-.07s0,0,.07,0-.1-.07,0-.1,0,0,0,0,.13-.16.23-.2-.05.07,0,.11.15-.27.27-.34h0c-.07-.11.12,0,.13-.1s0,.07,0,.06.13-.14.21-.26v0c.06,0,.12-.08.18-.1s0-.05,0-.08c.26,0,.2-.3.43-.27,0,0,0,.05,0,0l.09-.11s0,0-.09,0a.11.11,0,0,1,0-.1c0,.07.06.07.1.08l0,0c.12,0-.06-.1.06-.11l0,0s0-.09.06-.11,0,0,0,.09,0-.17.09-.15,0,.05,0,.08.08,0,.12,0h0l.1,0h0c-.06-.18.09-.11.09-.26,0,.14,0,.06.07.12s.07,0,.08,0,.09,0,.08-.12,0,0,.07,0,0,0-.05-.05.22-.05.25-.22,0-.18.07-.28,0,.09,0,.09a.13.13,0,0,0,.12-.09s0,0,.05,0,0-.09,0-.09a.38.38,0,0,1,0,.1s0-.11.06-.16,0,.07,0,.1.09-.12.06-.19h0s0,0,0,.06-.07,0-.09,0l0,0c-.12-.09-.1.11-.16.15l0-.1v.11s-.07,0-.06-.08,0,.06-.08,0,0,0,0,0l0,.06s-.05-.05,0-.06-.07.15-.14.11h0c-.08.11,0,.07,0,.2l-.17-.11,0,.07s0,0-.05,0,0,0,0,.08-.12.14-.2,0,.08,0,0,.07c-.1-.09,0,.07-.13.06s0-.07,0-.08-.1.05-.13.1-.06.1-.1.17-.15.06-.23.08h0c0,.08,0,.12-.06.17a.11.11,0,0,1,0-.11l0,0a.09.09,0,0,1,0,.08l0-.06c-.05,0-.06.15-.16.18s.17.09.12.19-.06-.07-.05-.1,0,0,0,0v-.07s0,.05,0,.07,0,0-.06,0,0,0,0,0a.15.15,0,0,1-.12,0s0,.05,0,.07-.06,0-.1,0,0,0,0,.1,0,0-.06,0-.13.12,0,.15h0c0,.13-.22.13-.3.23l0,0c0,.07-.11.11-.12.19s-.07,0-.08,0,0,.07-.11.09,0,0,0-.06-.11,0-.12.11c0-.07-.09,0-.11,0h.07a.26.26,0,0,1-.08.07l0-.08c-.18,0-.1.3-.29.24,0,.07.09,0,.1.06s-.19,0-.21,0,0,.15-.09.18a.1.1,0,0,1,0,.14c-.06,0-.14,0-.12-.09s0,0,0,0,0,0,0-.06v0s-.12.06-.13,0,0,.05.05,0-.11.08-.19.12.05,0,0,0,0,.08-.07.15-.05-.1-.1,0-.06-.05-.06-.09-.14.07-.18.09l0,0a.12.12,0,0,1,0,.05l.06,0s0,0-.06,0,.08.06.07.14-.06.09-.12,0c.1,0-.06-.05,0-.12a.07.07,0,0,1-.05,0s0,0,0,0,0,.1-.06.16-.07-.05-.08,0,.06,0,.05.1,0,.07-.07.08h0s0,.06,0,.1,0,0,0,0-.14,0-.16.1-.05-.06-.09-.06-.11,0-.14.1.05,0,0,.1l.08-.12,0,.12s0-.09.07-.09,0,.05,0,.08-.06.11-.15.11l-.09-.12c-.12,0-.09.17-.22.22h0c0,.06-.06.06-.08.1s-.06,0-.09-.05-.08.06,0,.14h-.09c-.1,0,0,.18-.09.24s-.07-.06,0-.13-.06,0,0,.06,0,.11-.08.09,0,.07,0,.09l0,0s0,.06,0,.08c-.18-.05-.22.19-.37.15a1.53,1.53,0,0,1-.16.17s0,0,0,0,0,.15-.07.17,0-.07,0-.07-.08.1-.2.07v0c-.08,0-.06.13-.14.18l0,0a.45.45,0,0,1-.12.27c0-.07,0-.05,0-.09s.07.07,0,.14-.1,0-.15,0l.05,0c-.08,0-.07.06-.11.07l0,0c-.08.08,0,.16-.11.22l0,0c0,.12-.08,0-.08.09l-.08-.06a1.06,1.06,0,0,1-.1.23.65.65,0,0,1,0-.24s-.11.1-.09.15,0-.05,0,0a.23.23,0,0,1-.09.22c-.11-.16-.2.1-.34,0-.07.15-.25.16-.38.28.14.08,0,0,.07.15s0,0,0,0h-.15c-.05,0,0-.05,0-.07s-.07,0-.14,0,0,.08,0,.1h.1c0,.14-.16,0-.21.11v-.06c0,.06-.18.15-.16.28s-.06,0,0-.06-.18.32-.32.33v0s0,.09,0,.08,0,0,0,0,0,.1-.06.11V60c-.15.06-.11.22-.19.32-.07-.09-.18,0-.24,0h0c-.14.1-.17.26-.27.39-.15,0-.29.17-.46.22,0,0,.05.07,0,.1s0,.12-.09,0h0c-.08-.06-.13,0-.18,0l.07.11c-.24-.05-.28.31-.45.23,0,0,0,.08-.06.13l0-.06a.77.77,0,0,0-.23.17v-.06c-.06,0,.05.22,0,.26l-.08-.07c-.1.08-.26.08-.3.23,0,0,0,0,0-.06s-.23.08-.13.18c-.06-.08-.11.07-.14.14l0-.06c0,.11,0,.13,0,.19s0,0,0,0,0,.08-.09.1v-.05c-.06,0,0,0,0,.11s-.11.06-.16,0,0,.1,0,.11a0,0,0,0,1,0,0c-.12,0-.09.16-.19.14l0,0,.13-.07c0-.05-.1,0-.1-.13,0,.07,0,.21-.12.22h0a0,0,0,0,0,0,0h-.06s-.08,0-.11,0,0,.07.06.1,0,0,0,0h0l.07-.05s0,.09-.07.07l0,.12c-.09-.06-.2-.05-.24-.1s-.2.15-.19.3,0,0-.07,0,0,0,0-.05-.15.1-.12.19,0-.09-.09,0v0c-.25,0-.19.37-.48.3l0,0c-.27,0-.46.31-.75.28-.08,0-.06.06-.09.12l0-.06L82,64c-.08.1-.24-.11-.33,0l0,0s-.14.08-.15,0,0,.06,0,0v0l-.1.1c-.1,0,0-.15-.16-.12s-.11.15-.08.17a.07.07,0,0,1,.07,0l0,0c0,.11,0,.24.15.28l.06-.09,0,0-.07,0c.05,0,.06,0,.08-.05a.1.1,0,0,0,.05,0l0-.13s0,.1.05.1-.07-.09,0-.14.06.08.09,0a.05.05,0,0,1,0,.07s.1-.05.1-.12.13-.06.16,0a.22.22,0,0,1,.07-.12c0,.15.14,0,.17.1,0-.13.15-.12.21-.21s0,0,0,0,.08,0,.12,0,0-.14,0-.22,0,.12.07.2.07-.12,0-.17,0,0,.11.07c0-.11,0,0,0-.12s.06.1.12,0S82.94,64.15,82.94,64.15Zm1.48-1.07h0l0,0Zm.13-.08-.06,0s0,0,0,0S84.51,63,84.54,63ZM84,62.75s0,0,0,0l0,0h0Z"/><polygon class="cls-4" points="84.03 62.85 84.02 62.86 84.04 62.87 84.03 62.85 84.03 62.85"/><polygon class="cls-4" points="94.67 54.57 94.67 54.57 94.68 54.57 94.67 54.57"/><polygon class="cls-4" points="86.3 61.88 86.29 61.87 86.29 61.89 86.3 61.88"/><path class="cls-4" d="M95.46,54.24h0Z"/><path class="cls-4" d="M95.75,54h0Z"/><path class="cls-4" d="M96,53.89v0h0Z"/><path class="cls-4" d="M92.66,56.68h0S92.66,56.7,92.66,56.68Z"/><path class="cls-4" d="M93.56,55.74a.23.23,0,0,1,0,.05S93.59,55.77,93.56,55.74Z"/><polygon class="cls-4" points="91.59 57.65 91.59 57.65 91.59 57.65 91.59 57.65"/><path class="cls-4" d="M93.5,55.83a.05.05,0,0,0,0,0S93.51,55.81,93.5,55.83Z"/><polygon class="cls-4" points="96.92 53.17 96.94 53.16 96.93 53.15 96.92 53.17"/><path class="cls-4" d="M96.93,53.15v0S96.93,53.14,96.93,53.15Z"/><path class="cls-4" d="M96.95,53.1v0S97,53.12,96.95,53.1Z"/><path class="cls-4" d="M96.62,53.37v0Z"/><path class="cls-4" d="M96.54,53.44s.09,0,.1,0v0S96.53,53.39,96.54,53.44Z"/><path class="cls-4" d="M96,53.49l.08,0s-.07,0,0-.06C95.89,53.4,96.09,53.42,96,53.49Z"/><path class="cls-4" d="M95.74,53.63s0,0,0,0S95.7,53.64,95.74,53.63Z"/><path class="cls-4" d="M94.14,54.93l0-.05S94.12,54.9,94.14,54.93Z"/><polygon class="cls-4" points="94.04 55.44 94.09 55.44 94.07 55.39 94.04 55.44"/><polygon class="cls-4" points="93.57 55.23 93.58 55.21 93.54 55.27 93.57 55.23"/><path class="cls-4" d="M90.9,57.42l.06.05S90.91,57.38,90.9,57.42Z"/><path class="cls-4" d="M89.78,58.42s-.09,0-.08,0S89.78,58.44,89.78,58.42Z"/><polygon class="cls-4" points="86.22 61.14 86.23 61.1 86.2 61.15 86.22 61.14"/><path d="M83.65,71.3a121.92,121.92,0,0,0,15-12.59"/><path class="cls-4" d="M98.74,58.83s0-.05-.06,0l0,.07Z"/><path class="cls-4" d="M98.5,58.85a.21.21,0,0,0,.09.17c0-.08,0-.06,0-.15s.05,0,.07,0,0,0,0-.07-.11,0-.1.08S98.51,58.86,98.5,58.85Z"/><path class="cls-4" d="M96.41,60.68h0Z"/><path class="cls-4" d="M95.12,61.82a0,0,0,0,0,0,0S95.11,61.82,95.12,61.82Z"/><path class="cls-4" d="M94.84,61.95h0Z"/><path class="cls-4" d="M96.41,60.68h-.05S96.39,60.69,96.41,60.68Z"/><path class="cls-4" d="M98.37,59.26a.06.06,0,0,0,0,0v0Z"/><path class="cls-4" d="M96.91,60.11h0v0Z"/><path class="cls-4" d="M97.32,59.7s0,.06.05.09,0,0,0-.05Z"/><path class="cls-4" d="M98.07,59.15v0Z"/><path class="cls-4" d="M96.6,60.39h0Z"/><path class="cls-4" d="M84.39,71.17h0Z"/><polygon class="cls-4" points="83.64 71.28 83.64 71.27 83.62 71.24 83.64 71.28"/><path class="cls-4" d="M94.38,62.24h0S94.38,62.23,94.38,62.24Z"/><path class="cls-4" d="M90.69,65.5c.08,0,0,.12.09.12S90.77,65.49,90.69,65.5Z"/><path class="cls-4" d="M98.35,59.27l0,0Z"/><polygon class="cls-4" points="90.78 65.62 90.78 65.63 90.8 65.62 90.78 65.62"/><path class="cls-4" d="M93.49,63.1h0Z"/><path class="cls-4" d="M94.24,62.56h0Z"/><path class="cls-4" d="M93.19,63.49s0,0,0,0h0S93.18,63.49,93.19,63.49Z"/><polygon class="cls-4" points="92.82 63.81 92.83 63.82 92.84 63.81 92.82 63.81"/><path class="cls-4" d="M85.59,70.25l-.06,0S85.53,70.3,85.59,70.25Z"/><path class="cls-4" d="M98.34,59.23s0,0,0,0h0Z"/><path class="cls-4" d="M93.54,63.92l-.07,0Z"/><path class="cls-4" d="M88.44,68.06v0A0,0,0,0,0,88.44,68.06Z"/><path class="cls-4" d="M93.31,64.13h-.07v0Z"/><path class="cls-4" d="M85.54,70.21h0Z"/><path class="cls-4" d="M85.22,70.65c.06,0,0-.09,0-.15s.07,0,.13,0,0-.15.05-.17,0,0,0,0,.14-.11.14-.22h0a.43.43,0,0,1-.08-.1s0-.08.06,0,0,0,0,.05v0c.08.05,0,.05,0,.1s.06-.17.12-.18-.08.1,0,.12l-.09,0c.13.07,0,0,.09.1s.07-.11.17-.15,0-.05-.06-.1.22.1.25-.06-.07-.16,0-.16l0,.09c.09-.06,0-.15.09-.16s0,.07,0,.07,0-.07.05-.11l.06.06c.08-.08.14-.2.23-.29s0,.06,0,.06a.89.89,0,0,1,.42-.24v-.09s0,0,0,0,0,0,0-.08.06,0,.06,0,.15-.29.29-.29v0c.09,0,0-.18.09-.17v0c.17-.09.29-.26.46-.26,0-.1.17-.07.09-.2.13,0,.12,0,.27,0s0-.11,0-.15l0,.06v-.1l.08.05,0,0a.06.06,0,0,1-.06,0c0-.07.17-.07.2,0l.09-.16s0,.05,0,.08.06.05.08-.05,0,0,0-.05.13,0,.18-.11l0,0c.11-.07.19-.19.3-.27-.05,0-.1-.07-.08-.1l.06.05c0-.06-.05,0,0-.08s.09.05.08.09l0-.06s0,0,0,.06.14,0,.11-.1l0,0c.11-.09.14-.15.23-.22s0-.07,0-.14a.87.87,0,0,0,.26-.12c0-.07,0-.06,0-.11s.12,0,.11,0a1,1,0,0,0,.2-.25s-.05,0-.06,0,.07,0,.08,0h0c.07-.18.43-.11.45-.3h0l.07-.15c.06,0,0,.06.06.06.05-.18.2-.14.25-.28.2.08.26-.23.44-.23l0,0c0-.06,0,0,.07,0s-.05,0-.05,0a3.05,3.05,0,0,1,.75-.5c.09-.06-.1-.22.07-.22l0,.09c.1-.22.34-.29.45-.49,0,0,0,0,0,.06s.13-.11.1-.15,0,0,.07,0,0-.13.09-.1,0,0,0,0,.11-.09,0-.12.1-.12.17-.14.13-.06.07-.15c.07.09.17,0,.17-.1s.06,0,.07,0,.07-.09,0-.13c.17,0,.09-.22.25-.13a3,3,0,0,1,.28-.42c.07.09-.12.12,0,.21.08-.13.08-.26.21-.34s0,.05,0,.07c.08-.13.22-.18.28-.32s0,0,0,0,.06,0,0-.06v0c-.08,0,0-.18-.05-.22.07.14.12-.06.19.13a.07.07,0,0,0,0-.07s0,0,.05,0,0-.1.05-.16,0,0,0,.06,0-.13.07-.16,0,0,0,0,.07-.23.2-.29c0,.11.06,0,.13.06l0-.07h-.05s0-.13.1-.14v.06l.07-.09-.07,0c0-.08-.08-.08,0-.12s0,0,.11,0h0s0-.09.06-.1.06.08.08.09.09-.12.07-.2a.13.13,0,0,0,0,.06l0-.06s0,0,.07,0-.1-.07,0-.1,0,0,0,0,.12-.17.21-.21,0,.07,0,.11.13-.28.25-.35h0c-.08-.11.12,0,.12-.11s0,.07,0,.05.11-.15.19-.28v0c.06,0,.12-.08.17-.11s0-.06,0-.08c.26,0,.18-.31.41-.3,0,0,0,.05,0,0l.08-.12s0,0-.09,0a.11.11,0,0,1,0-.11c0,.07.06.07.11.07l0,0c.12,0-.07-.09,0-.11l0,0s0-.09,0-.11,0,0,0,.09,0-.17.07-.15,0,.05,0,.08.08,0,.12,0h0l.09,0h0c-.07-.17.08-.12.07-.27,0,.14,0,.06.08.11s.07,0,.08,0,.09,0,.07-.12,0,0,.07,0,0,0-.06,0,.22-.07.23-.24,0-.18,0-.28,0,.08,0,.08a.13.13,0,0,0,.11-.1s0,0,.06,0,0-.08,0-.1a.38.38,0,0,1,0,.1c0-.05,0-.12,0-.17s0,.07,0,.1.08-.13,0-.19h0s0,0,0,.05-.07,0-.09,0v0c-.13-.08-.09.12-.15.16l-.05-.1v.11s-.08,0-.06-.08,0,.06-.08,0h0v.06s-.06,0,0-.06-.05.16-.13.13h0c-.07.11,0,.06,0,.19l-.18-.09,0,.06s0,0-.05,0,0,0,0,.07-.1.14-.2.07.07,0,.05.07c-.1-.08,0,.07-.12.07s0-.07-.05-.08-.1.06-.12.11,0,.1-.09.18-.15.07-.22.1h0c.05.08,0,.12,0,.17a.11.11,0,0,1,0-.1l0,0a.09.09,0,0,1,0,.08l0-.06c0,.05,0,.16-.15.19s.18.08.13.18-.07-.06-.06-.09,0,0,0,0v-.07s0,.05,0,.07,0,0-.07,0,0,0,0,0a.15.15,0,0,1-.12,0s0,0,0,.07-.06,0-.11,0,0,0,0,.1,0,0-.06,0-.12.12,0,.15h0c0,.14-.21.14-.28.25l0,0c0,.07-.1.12-.11.19s-.07,0-.08,0,0,.08-.1.1,0,0,0-.06-.11,0-.12.12c0-.06-.09,0-.11,0h.07a.25.25,0,0,1-.08.07l0-.07c-.18,0-.08.3-.27.25,0,.07.09,0,.11.05s-.19,0-.2,0,0,.15-.07.19a.1.1,0,0,1,.06.13c-.06,0-.14,0-.13-.08s0,0,0,0,0-.05,0-.06v0s-.11.06-.13,0,0,.05.05,0-.1.09-.18.13.05,0,0,0,0,.08-.06.15-.06-.09-.1,0-.06-.05-.06-.08-.14.07-.18.1l0,0a.12.12,0,0,1,0,.06l.06,0s0,0-.06,0,.08.06.08.13-.05.09-.11,0c.1-.05-.06-.05,0-.12a.07.07,0,0,1,0,0s0,0,0,0,0,.1-.05.16-.07,0-.08,0,.06,0,.06.09,0,.07-.06.09h0s0,.06,0,.1,0,0,0,0-.14,0-.16.1-.06-.06-.09-.06-.11,0-.14.1.05,0,0,.1l.08-.12v.12s0-.09.07-.1,0,.05,0,.07c-.1,0-.05.11-.14.11l-.1-.11c-.12,0-.08.17-.2.23h0c0,.06-.05.06-.07.1s-.06,0-.1,0-.07.06,0,.14h-.09c-.1,0,0,.18-.08.24s-.07-.06,0-.13-.05,0,0,.06,0,.11-.08.1,0,.07,0,.09l0,0s0,.06,0,.08c-.18,0-.21.2-.37.16a1.51,1.51,0,0,1-.15.18s0,0,0,0,.05.14-.06.17,0-.07,0-.07-.08.1-.2.07v0c-.08,0-.06.13-.13.18l0,0a.44.44,0,0,1-.11.27c0-.07,0-.05,0-.09s.08.07,0,.13-.1,0-.15,0l.05,0c-.09,0-.07.06-.11.07l0,0c-.07.08,0,.16-.11.23h0c0,.12-.08,0-.08.09l-.08-.06a1.05,1.05,0,0,1-.1.23.65.65,0,0,1,0-.24s-.1.1-.09.15,0-.05,0,0a.23.23,0,0,1-.08.22c-.11-.16-.2.1-.34,0-.07.15-.24.16-.37.28.14.08,0,0,.07.15s0,0,0,0h-.15c-.05,0,0-.05,0-.07s-.07,0-.14,0,0,.08,0,.1h.1c0,.14-.16,0-.21.11v-.06c0,.06-.18.15-.15.28s-.06,0,0-.06-.18.31-.32.33v0s0,.09,0,.08,0,0,0,0,0,.1-.06.1v-.05c-.15.06-.11.22-.19.32-.07-.09-.18,0-.24,0h0c-.14.1-.17.25-.27.39-.15,0-.29.17-.46.22,0,0,.05.07,0,.1s0,.12-.09,0h0c-.08-.06-.13,0-.18,0l.07.11c-.24-.05-.28.31-.45.23,0,0,0,.08-.06.13l0-.06a.77.77,0,0,0-.23.17v-.06c-.06,0,.05.22,0,.26l-.08-.07c-.1.08-.26.08-.3.24,0,0,0,0,0-.06s-.23.08-.12.19c-.06-.07-.11.07-.14.15l0-.06c0,.11,0,.13,0,.2s0,0,0,0,0,.08-.08.1v-.05c-.06,0,0,.05,0,.11s-.11.06-.16,0,0,.1,0,.11a0,0,0,0,1,0,0c-.12,0-.08.16-.18.15l0,0,.13-.08c0-.05-.1,0-.11-.12,0,.07,0,.21-.1.23h0a0,0,0,0,0,0,0l-.06,0s-.08,0-.11,0,0,.07.07.09,0,0,0,0h0l.07-.06s0,.09-.06.08l0,.12c-.1,0-.2,0-.25-.08s-.19.17-.16.32-.05,0-.07,0,0,0,0-.05-.14.12-.09.2,0-.09-.09,0v0c-.26,0-.13.39-.43.37h0c-.26.09-.39.39-.68.43-.08,0,0,.07-.06.14l-.06-.05v.12c-.05.12-.26,0-.3.14l0,0s-.11.12-.14.06,0,.05,0,0l0,0-.06.13c-.09,0-.08-.14-.2-.06s-.05.18,0,.19a.07.07,0,0,1,.08,0l0,0c.06.1.1.22.24.22l0-.11.05,0-.05,0c.06,0,.05,0,.06-.07l.06,0v-.14s0,.09.08.08-.09-.06-.06-.13.08.06.09,0a.06.06,0,0,1,0,.06c0-.05.08-.07.06-.14s.1-.09.16,0a.21.21,0,0,1,0-.14c0,.15.12-.07.19.05,0-.13.12-.15.15-.25s0,0,0,0,.08,0,.12,0,0-.15,0-.22,0,.11.11.18,0-.13,0-.17,0,0,.12.05c-.07-.1,0,0,0-.13s.08.08.12,0S85.22,70.65,85.22,70.65Zm1.29-1.22h0l0,0Zm.12-.09-.05,0s0,0,0,0S86.6,69.34,86.63,69.34Zm-.54-.2s0,0,0,0l0,0h0Z"/><polygon class="cls-4" points="86.1 69.24 86.1 69.25 86.12 69.25 86.11 69.23 86.1 69.24"/><polygon class="cls-4" points="96.43 60.68 96.43 60.68 96.44 60.68 96.43 60.68"/><polygon class="cls-4" points="88.33 68.19 88.32 68.18 88.32 68.2 88.33 68.19"/><path class="cls-4" d="M97.19,60.29h0Z"/><path class="cls-4" d="M97.46,60.06l.05,0Z"/><path class="cls-4" d="M97.68,59.89l0,0h0Z"/><path class="cls-4" d="M94.57,62.9h0S94.56,62.92,94.57,62.9Z"/><path class="cls-4" d="M95.41,61.91a.23.23,0,0,1,0,.05S95.44,61.94,95.41,61.91Z"/><polygon class="cls-4" points="93.55 63.91 93.55 63.91 93.55 63.92 93.55 63.91"/><path class="cls-4" d="M95.36,62a.05.05,0,0,0,0,0S95.37,62,95.36,62Z"/><polygon class="cls-4" points="98.54 59.1 98.55 59.09 98.55 59.08 98.54 59.1"/><path class="cls-4" d="M98.55,59.08v0S98.54,59.07,98.55,59.08Z"/><path class="cls-4" d="M98.56,59v0S98.57,59,98.56,59Z"/><path class="cls-4" d="M98.26,59.32v0Z"/><path class="cls-4" d="M98.19,59.41s.08,0,.1,0v0S98.18,59.36,98.19,59.41Z"/><path class="cls-4" d="M97.64,59.5l.08,0s-.07,0,0-.05C97.54,59.42,97.74,59.42,97.64,59.5Z"/><path class="cls-4" d="M97.41,59.67s0,0,0,0S97.37,59.67,97.41,59.67Z"/><path class="cls-4" d="M95.93,61.07l0-.05S95.9,61,95.93,61.07Z"/><polygon class="cls-4" points="95.86 61.58 95.92 61.59 95.89 61.53 95.86 61.58"/><polygon class="cls-4" points="95.39 61.4 95.39 61.38 95.36 61.45 95.39 61.4"/><path class="cls-4" d="M92.85,63.71l.06.05S92.86,63.66,92.85,63.71Z"/><path class="cls-4" d="M91.77,64.74s-.09,0-.08,0S91.77,64.76,91.77,64.74Z"/><polygon class="cls-4" points="88.25 67.45 88.26 67.42 88.23 67.47 88.25 67.45"/></g></g></g></g></svg>