<svg xmlns="http://www.w3.org/2000/svg" viewBox="0 0 140.41 129.51"><defs><style>.cls-1{fill:none;stroke:#ed1e79;stroke-width:4px;}.cls-1,.cls-10,.cls-3,.cls-5,.cls-6,.cls-7,.cls-8,.cls-9{stroke-miterlimit:10;}.cls-2,.cls-8{fill:#ed1e79;}.cls-3{fill:#fdd5c3;}.cls-3,.cls-5,.cls-6,.cls-7,.cls-8{stroke:#231f20;stroke-width:1.51px;}.cls-4{fill:#231f20;}.cls-5{fill:#ff7bac;}.cls-6{fill:#9e005d;}.cls-7{fill:#ff1d25;}.cls-10,.cls-9{fill:#d4145a;stroke:#000;}.cls-9{stroke-width:0.23px;}.cls-10{stroke-width:0.25px;}</style></defs><title>love</title><g id="Layer_2" data-name="Layer 2"><g id="ICONS"><g id="love"><g id="outline"><path class="cls-1" d="M140,75.12a40.1,40.1,0,0,1-12.83-5.28c-10.93-7-11.35-15.16-22.64-21.13-.93-.49-10.36-4.8-11.32-3.77-.44.47,10.7,7.06,9.06,6.79-.78-.13-7.55-6-10.56-6.79-3.88-1-11.74-1.06-16.6,3.77-3.88,3.86-4.26,9.6-3.77,9.81s1.48-3.32,5.28-6a16.43,16.43,0,0,1,4.56-2.26,17,17,0,0,1,4.5-.76,19.23,19.23,0,0,1,8.48,1.82c4.07,1.89,6.77,4.74,6.61,5s-2.38-1.33-7.55-3.77A14.75,14.75,0,0,0,88.65,51a13.88,13.88,0,0,0-3.77,0,14.79,14.79,0,0,0-3,.75A19.31,19.31,0,0,0,77.33,54a16.16,16.16,0,0,0-6,6.79,7.37,7.37,0,0,0-.75,5.28c.23.76.59,1.92,1.51,2.26,1.94.72,6-2.37,7.55-6,.33-.78.32-1.34,1.24-1.89a5.5,5.5,0,0,1,4-.37,14.18,14.18,0,0,1,5.28,3c2,1.67,3,2.51,3.77,3.77,2.75,4.82-.52,10.89-.75,11.32a14,14,0,0,1-5.28,5.28c-3.25,1.84-4.42.72-8.3,2.26a17.51,17.51,0,0,0-8.3,6.79c-1.37,2.24-3.19,6.57-1.51,8.3a3.9,3.9,0,0,0,3,.75,6.67,6.67,0,0,0,3.77-2.26s.31-.29,6-4.53c4.3-3.18,11.34-.4,16.6.75,5.53,1.21,13.72,1.65,24.9-2.26a11.23,11.23,0,0,1,2.26,0c6.3.64,10.21,6.51,11.32,8.3"/><path class="cls-2" d="M93.38,58.54c.06,2.14.05,4.26.07,6.39l-.35-.78c1.71,1,3.44,2,5.18,3a52.3,52.3,0,0,0,5.35,2.63,12.86,12.86,0,0,1,2.82,1.58,13.14,13.14,0,0,1,2.35,2.31,12.25,12.25,0,0,1,2.67,5.9l-.34.21c-1.79-1.24-3.3-2.42-4.84-3.49L104,74.7c-.74-.5-1.48-1-2.29-1.63-1.62-1.2-3.34-2.37-5-3.6s-3.2-2.55-4.7-3.93l-.42-.39.08-.39c.42-2.09.8-4.18,1.27-6.27Z"/><path class="cls-1" d="M.44,75.12a40.1,40.1,0,0,0,12.83-5.28c10.93-7,11.35-15.16,22.64-21.13.93-.49,10.36-4.8,11.32-3.77.44.47-10.7,7.06-9.06,6.79.78-.13,7.55-6,10.56-6.79,3.88-1,11.74-1.06,16.6,3.77,3.88,3.86,4.26,9.6,3.77,9.81s-1.48-3.32-5.28-6a16.43,16.43,0,0,0-4.56-2.26,17,17,0,0,0-4.5-.76,19.23,19.23,0,0,0-8.48,1.82c-4.07,1.89-6.77,4.74-6.61,5s2.38-1.33,7.55-3.77A14.75,14.75,0,0,1,51.76,51a13.88,13.88,0,0,1,3.77,0,14.79,14.79,0,0,1,3,.75A19.31,19.31,0,0,1,63.07,54a16.16,16.16,0,0,1,6,6.79,7.37,7.37,0,0,1,.75,5.28c-.23.76-.59,1.92-1.51,2.26-1.94.72-6-2.37-7.55-6a4.48,4.48,0,0,0-2-1.89A3.76,3.76,0,0,0,55.53,60a14.18,14.18,0,0,0-5.28,3c-2,1.67-3,2.51-3.77,3.77-2.75,4.82.52,10.89.75,11.32a14,14,0,0,0,5.28,5.28c3.25,1.84,4.33,1,8.3,2.26a16.87,16.87,0,0,1,8.3,6.79c1.37,2.24,3.19,6.57,1.51,8.3a3.9,3.9,0,0,1-3,.75,6.68,6.68,0,0,1-3.77-2.26s-.31-.29-6-4.53c-4.3-3.18-11.34-.4-16.6.75-5.53,1.21-13.72,1.65-24.9-2.26a11.23,11.23,0,0,0-2.26,0c-6.3.64-10.21,6.51-11.32,8.3"/><path class="cls-2" d="M47.43,58.5c.46,2.09.85,4.18,1.27,6.27l.08.39-.42.39q-2.25,2.07-4.7,3.93c-1.62,1.23-3.35,2.4-5,3.6-.81.6-1.55,1.13-2.29,1.63l-2.27,1.56c-1.54,1.07-3.05,2.25-4.84,3.49l-.34-.21a12.25,12.25,0,0,1,2.67-5.9A13.14,13.14,0,0,1,34,71.34a12.86,12.86,0,0,1,2.82-1.58,52.29,52.29,0,0,0,5.35-2.63c1.74-.95,3.46-1.95,5.18-3l-.35.78c0-2.13,0-4.26.07-6.39Z"/><path class="cls-1" d="M14.1,25.42a4,4,0,0,1,.48,2.29l1.54-.15a4,4,0,0,1,3.66,3,4.33,4.33,0,0,1-2.41,4.63,3.94,3.94,0,0,1-1.26.38l-8,.5-1.3-8.16A4.06,4.06,0,0,1,7,26.62a4.22,4.22,0,0,1,3.58-3.19A3.91,3.91,0,0,1,14.1,25.42Z"/><path class="cls-1" d="M79,23.91a4,4,0,0,1,.48,2.29L81,26a4,4,0,0,1,3.66,3,4.33,4.33,0,0,1-2.41,4.63,3.93,3.93,0,0,1-1.26.38l-8,.5-1.3-8.16a4.05,4.05,0,0,1,.13-1.31,4.22,4.22,0,0,1,3.58-3.19A3.91,3.91,0,0,1,79,23.91Z"/><path class="cls-1" d="M109.77,2.94a4,4,0,0,1,2,1.28l1-1.19a4,4,0,0,1,4.72-.45,4.33,4.33,0,0,1,1.57,5,3.93,3.93,0,0,1-.62,1.16l-5.29,6L106.4,9.85a4.06,4.06,0,0,1-.83-1A4.22,4.22,0,0,1,105.84,4,3.91,3.91,0,0,1,109.77,2.94Z"/><path class="cls-1" d="M68.43,116.73a4,4,0,0,1,.48,2.29l1.54-.15a4,4,0,0,1,3.66,3,4.33,4.33,0,0,1-2.41,4.63,3.94,3.94,0,0,1-1.26.38l-8,.5-1.3-8.16a4.05,4.05,0,0,1,.13-1.31,4.22,4.22,0,0,1,3.58-3.19A3.91,3.91,0,0,1,68.43,116.73Z"/></g><path id="right" class="cls-3" d="M140,75.12a40.1,40.1,0,0,1-12.83-5.28c-10.93-7-11.35-15.16-22.64-21.13-.93-.49-10.36-4.8-11.32-3.77-.44.47,10.7,7.06,9.06,6.79-.78-.13-7.55-6-10.56-6.79-3.88-1-11.74-1.06-16.6,3.77-3.88,3.86-4.26,9.6-3.77,9.81s1.48-3.32,5.28-6a16.43,16.43,0,0,1,4.56-2.26,17,17,0,0,1,4.5-.76,19.23,19.23,0,0,1,8.48,1.82c4.07,1.89,6.77,4.74,6.61,5s-2.38-1.33-7.55-3.77A14.75,14.75,0,0,0,88.65,51a13.88,13.88,0,0,0-3.77,0,14.79,14.79,0,0,0-3,.75A19.31,19.31,0,0,0,77.33,54a16.16,16.16,0,0,0-6,6.79,7.37,7.37,0,0,0-.75,5.28c.23.76.59,1.92,1.51,2.26,1.94.72,6-2.37,7.55-6,.33-.78.32-1.34,1.24-1.89a5.5,5.5,0,0,1,4-.37,14.18,14.18,0,0,1,5.28,3c2,1.67,3,2.51,3.77,3.77,2.75,4.82-.52,10.89-.75,11.32a14,14,0,0,1-5.28,5.28c-3.25,1.84-4.42.72-8.3,2.26a17.51,17.51,0,0,0-8.3,6.79c-1.37,2.24-3.19,6.57-1.51,8.3a3.9,3.9,0,0,0,3,.75,6.67,6.67,0,0,0,3.77-2.26s.31-.29,6-4.53c4.3-3.18,11.34-.4,16.6.75,5.53,1.21,13.72,1.65,24.9-2.26a11.23,11.23,0,0,1,2.26,0c6.3.64,10.21,6.51,11.32,8.3"/><path class="cls-4" d="M93.25,58.53l-.35,6.35-.13-.29A87.43,87.43,0,0,0,103,70.79a20.2,20.2,0,0,1,2.65,1.59A17.29,17.29,0,0,1,108,74.47a16.86,16.86,0,0,1,3.35,5.15l-.13.08a39.26,39.26,0,0,0-4.16-4.24A35.62,35.62,0,0,0,102.32,72c-1.7-1.07-3.43-2.15-5.08-3.3s-3.29-2.35-4.85-3.63L92.23,65l0-.17.85-6.31Z"/><path id="left_hand" data-name="left hand" class="cls-3" d="M.44,75.12a40.1,40.1,0,0,0,12.83-5.28c10.93-7,11.35-15.16,22.64-21.13.93-.49,10.36-4.8,11.32-3.77.44.47-10.7,7.06-9.06,6.79.78-.13,7.55-6,10.56-6.79,3.88-1,11.74-1.06,16.6,3.77,3.88,3.86,4.26,9.6,3.77,9.81s-1.48-3.32-5.28-6a16.43,16.43,0,0,0-4.56-2.26,17,17,0,0,0-4.5-.76,19.23,19.23,0,0,0-8.48,1.82c-4.07,1.89-6.77,4.74-6.61,5s2.38-1.33,7.55-3.77A14.75,14.75,0,0,1,51.76,51a13.88,13.88,0,0,1,3.77,0,14.79,14.79,0,0,1,3,.75A19.31,19.31,0,0,1,63.07,54a16.16,16.16,0,0,1,6,6.79,7.37,7.37,0,0,1,.75,5.28c-.23.76-.59,1.92-1.51,2.26-1.94.72-6-2.37-7.55-6a4.48,4.48,0,0,0-2-1.89A3.76,3.76,0,0,0,55.53,60a14.18,14.18,0,0,0-5.28,3c-2,1.67-3,2.51-3.77,3.77-2.75,4.82.52,10.89.75,11.32a14,14,0,0,0,5.28,5.28c3.25,1.84,4.33,1,8.3,2.26a16.87,16.87,0,0,1,8.3,6.79c1.37,2.24,3.19,6.57,1.51,8.3a3.9,3.9,0,0,1-3,.75,6.68,6.68,0,0,1-3.77-2.26s-.31-.29-6-4.53c-4.3-3.18-11.34-.4-16.6.75-5.53,1.21-13.72,1.65-24.9-2.26a11.23,11.23,0,0,0-2.26,0c-6.3.64-10.21,6.51-11.32,8.3"/><path class="cls-4" d="M47.3,58.51l.85,6.31,0,.17-.15.12c-1.56,1.28-3.19,2.47-4.85,3.63S39.79,71,38.09,72a35.61,35.61,0,0,0-4.74,3.41,39.25,39.25,0,0,0-4.16,4.24l-.13-.08a16.86,16.86,0,0,1,3.35-5.15,17.29,17.29,0,0,1,2.32-2.08,20.2,20.2,0,0,1,2.65-1.59,87.42,87.42,0,0,0,10.26-6.2l-.13.29-.35-6.35Z"/><g id="hearts"><path class="cls-5" d="M14.1,25.42a4,4,0,0,1,.48,2.29l1.54-.15a4,4,0,0,1,3.66,3,4.33,4.33,0,0,1-2.41,4.63,3.94,3.94,0,0,1-1.26.38l-8,.5-1.3-8.16A4.06,4.06,0,0,1,7,26.62a4.22,4.22,0,0,1,3.58-3.19A3.91,3.91,0,0,1,14.1,25.42Z"/><path class="cls-6" d="M79,23.91a4,4,0,0,1,.48,2.29L81,26a4,4,0,0,1,3.66,3,4.33,4.33,0,0,1-2.41,4.63,3.93,3.93,0,0,1-1.26.38l-8,.5-1.3-8.16a4.05,4.05,0,0,1,.13-1.31,4.22,4.22,0,0,1,3.58-3.19A3.91,3.91,0,0,1,79,23.91Z"/><path class="cls-7" d="M109.77,2.94a4,4,0,0,1,2,1.28l1-1.19a4,4,0,0,1,4.72-.45,4.33,4.33,0,0,1,1.57,5,3.93,3.93,0,0,1-.62,1.16l-5.29,6L106.4,9.85a4.06,4.06,0,0,1-.83-1A4.22,4.22,0,0,1,105.84,4,3.91,3.91,0,0,1,109.77,2.94Z"/><path class="cls-8" d="M68.43,116.73a4,4,0,0,1,.48,2.29l1.54-.15a4,4,0,0,1,3.66,3,4.33,4.33,0,0,1-2.41,4.63,3.94,3.94,0,0,1-1.26.38l-8,.5-1.3-8.16a4.05,4.05,0,0,1,.13-1.31,4.22,4.22,0,0,1,3.58-3.19A3.91,3.91,0,0,1,68.43,116.73Z"/></g><g id="love-2" data-name="love"><path class="cls-9" d="M62.57,81.25l.39-.1a14.36,14.36,0,0,1,3.21-.6q.73,0,.73.47a.43.43,0,0,1-.17.33.55.55,0,0,1-.37.14l-.28,0-.25,0a6.64,6.64,0,0,0-1.5.23q-.34.09-1.31.47a3.09,3.09,0,0,1-1.07.25.6.6,0,0,1-.5-.25.76.76,0,0,1-.18-.48,2.76,2.76,0,0,1,.4-1.06,29.79,29.79,0,0,1,2.6-4.13q2-2.63,3.09-3.85L68,72q.48-.56.83-.56a.46.46,0,0,1,.31.12.34.34,0,0,1,.13.25,1.14,1.14,0,0,1-.33.58l-.81.92Q66.71,74.85,66,75.69t-1.44,1.94A16.12,16.12,0,0,0,62.57,81.25Z"/><path class="cls-10" d="M71.35,75.63q.8,0,.8,1a6.81,6.81,0,0,1-1.19,3.27Q69.65,82,68.43,82a.87.87,0,0,1-.83-.52,1.36,1.36,0,0,1-.14-.63,5.4,5.4,0,0,1,.85-2.7,6.53,6.53,0,0,1,1.87-2.1A2.07,2.07,0,0,1,71.35,75.63Zm-1,3.67q-.24-.19-.24-.3t.31-.43A2.76,2.76,0,0,0,71.28,77a.29.29,0,0,0,0-.16.26.26,0,0,0-.24-.15q-.31,0-.91.6a6.12,6.12,0,0,0-1.18,1.6,3.67,3.67,0,0,0-.48,1.56.5.5,0,0,0,.09.29.38.38,0,0,0,.32.17q.47,0,1-.7a3,3,0,0,0,.38-.6A1.82,1.82,0,0,0,70.34,79.3Z"/><path class="cls-10" d="M75.79,79.25a10.49,10.49,0,0,1-1,1.51Q73.73,82,73,82a.7.7,0,0,1-.64-.46,1.36,1.36,0,0,1-.16-.63A5,5,0,0,1,72.8,79q.5-1.06.83-1.67a4.77,4.77,0,0,0,.3-.57,3.1,3.1,0,0,1,.2-.4.39.39,0,0,1,.35-.2.27.27,0,0,1,.2.1.41.41,0,0,1,.1.27,6.19,6.19,0,0,1-.79,2,5.86,5.86,0,0,0-.79,2q0,.31.24.31.42,0,1.18-1.09a9.54,9.54,0,0,0,.71-1.23q0-.24,0-.37a2.75,2.75,0,0,1,.27-1.26,1.05,1.05,0,0,1,.94-.69q.34,0,.34.41a4.6,4.6,0,0,1-.68,1.91l.31,0a1.52,1.52,0,0,0,.83-.41,1.34,1.34,0,0,1,.53-.33.32.32,0,0,1,.22.13.34.34,0,0,1,.09.21,1.17,1.17,0,0,1-.49.79,1.89,1.89,0,0,1-1.28.5A1.63,1.63,0,0,1,75.79,79.25Z"/><path class="cls-10" d="M78.47,80v.17a.64.64,0,0,0,.11.37.89.89,0,0,0,.8.36q1.21,0,2.81-1.86.28-.32.48-.32a.28.28,0,0,1,.25.25q0,.38-.93,1.28a7,7,0,0,1-1.55,1.16,3.25,3.25,0,0,1-1.53.45,1.41,1.41,0,0,1-1.15-.5,1.47,1.47,0,0,1-.28-1A4.62,4.62,0,0,1,79,77.22a3.41,3.41,0,0,1,2.18-1.28.73.73,0,0,1,.46.16.65.65,0,0,1,.25.53,2.5,2.5,0,0,1-.48,1.26A5.06,5.06,0,0,1,78.47,80Zm.21-.76a3.9,3.9,0,0,0,1.07-.52,4.31,4.31,0,0,0,1.08-1.18.81.81,0,0,0,.15-.42q0-.19-.18-.19a1.36,1.36,0,0,0-.72.38A5,5,0,0,0,78.68,79.27Z"/></g></g></g></g></svg>