<svg xmlns="http://www.w3.org/2000/svg" viewBox="0 0 117 94.65"><defs><style>.cls-1,.cls-4{fill:none;}.cls-1{stroke:#ed1e79;stroke-width:3px;}.cls-1,.cls-2,.cls-3,.cls-4{stroke-miterlimit:10;}.cls-2{fill:#231f20;}.cls-2,.cls-3,.cls-4{stroke:#231f20;}.cls-3{fill:#f2f2f2;}</style></defs><title>mug</title><g id="Layer_2" data-name="Layer 2"><g id="ICONS"><g id="mugs"><g id="outline"><path class="cls-1" d="M62.62,37.12H23.91v9.17a13.65,13.65,0,0,0-4.07-3.06,13.41,13.41,0,0,0-9.17-1C4.06,44.16,1.38,54,1.5,60.55c.11,6.14,2.79,16.17,11.21,19.35a17.09,17.09,0,0,0,11.21,0V90.09l2,2,31.58,1a5.91,5.91,0,0,0,3.06-2c1.68-2.17,1.1-6.77,1-7.13L49.38,72.77a9.64,9.64,0,0,1-3.06-3.06,10.49,10.49,0,0,1,1-12.22c.33-.37,4.14-4.44,9.17-3.06,4.51,1.24,6,5.77,6.11,6.11a6.86,6.86,0,0,1,2-2c3.53-2.25,7.86-.15,8.15,0a9.43,9.43,0,0,1,5.09,8.15,9.86,9.86,0,0,1-3.06,7.13L62.62,84v8.15l1,1H93.18a3.31,3.31,0,0,0,2-1c2-2.39-1.68-7.36,0-9.17,1-1,2.72,0,5.09,0,5.85,0,11.06-6.31,13.24-11.21.56-1.25,4.09-9.15,0-16.3-.59-1-4.1-7.17-10.19-7.13a10.91,10.91,0,0,0-7.13,3.06l-1,1V45.27H63.64V37.12Z"/><path class="cls-1" d="M95.33,60.33c1.08-2.94,3.39-4.9,5.69-4.88,3.61,0,5.4,4.88,5.69,5.69,2.23,6.08-1,14.75-5.69,15.46-.72.11-2.81.23-5.69-2.44Z"/><path class="cls-1" d="M23.81,54.38c-1.34-3.65-4.2-6.08-7.06-6.05-4.48,0-6.69,6.05-7.06,7.06-2.77,7.54,1.2,18.29,7.06,19.17.89.13,3.49.29,7.06-3Z"/><path class="cls-1" d="M38.18,32a10.08,10.08,0,0,1,1-5.09c1.24-2.42,2.63-2.38,3.06-4.07.67-2.66-2.53-3.66-3.06-8.15a10.11,10.11,0,0,1,1-6.11c.77-1.37,1.49-1.7,2-3.06a7.6,7.6,0,0,0,0-5.09"/><path class="cls-1" d="M46.33,32a10.08,10.08,0,0,1,1-5.09c1.24-2.42,2.63-2.38,3.06-4.07.67-2.66-2.53-3.66-3.06-8.15a10.11,10.11,0,0,1,1-6.11c.77-1.37,1.49-1.7,2-3.06a7.6,7.6,0,0,0,0-5.09"/><path class="cls-1" d="M73.83,41.19a10.08,10.08,0,0,1,1-5.09c1.24-2.42,2.63-2.38,3.06-4.07.67-2.66-2.53-3.66-3.06-8.15a10.11,10.11,0,0,1,1-6.11c.77-1.37,1.49-1.7,2-3.06a7.6,7.6,0,0,0,0-5.09"/><path class="cls-1" d="M82,41.19a10.08,10.08,0,0,1,1-5.09c1.24-2.42,2.63-2.38,3.06-4.07.67-2.66-2.53-3.66-3.06-8.15a10.11,10.11,0,0,1,1-6.11c.77-1.37,1.49-1.7,2-3.06a7.6,7.6,0,0,0,0-5.09"/><path class="cls-1" d="M62.11,62.58h0a7.4,7.4,0,0,0-1.82-4.74,12.43,12.43,0,0,0-2.58-2.14,8.31,8.31,0,0,0-9,1.06c-3.51,3-3.48,8.09-2.46,11.12h0a8.26,8.26,0,0,0,2.33,3.52L62,83.38a.15.15,0,0,0,.19,0l11.09-9c3.43-3.17,4.8-7.7,3.46-11.52-1-2.76-3.84-4.43-6.5-4.89-2.88-.5-6.11,1-7.13,3.06Z"/></g><path id="mugs_bckgrnd" data-name="mugs bckgrnd" class="cls-2" d="M62.5,37.45h-38v9a13.4,13.4,0,0,0-4-3,13.16,13.16,0,0,0-9-1C5,44.36,2.39,54,2.5,60.45c.11,6,2.74,15.87,11,19a16.78,16.78,0,0,0,11,0v10l2,2,31,1a5.8,5.8,0,0,0,3-2c1.65-2.13,1.08-6.65,1-7l-12-11a9.47,9.47,0,0,1-3-3,10.3,10.3,0,0,1,1-12c.32-.36,4.06-4.36,9-3,4.43,1.22,5.9,5.67,6,6a6.74,6.74,0,0,1,2-2c3.47-2.21,7.72-.14,8,0a9.26,9.26,0,0,1,5,8,9.68,9.68,0,0,1-3,7l-12,10v8l1,1h29a3.25,3.25,0,0,0,2-1c2-2.35-1.65-7.22,0-9,.94-1,2.67,0,5,0,5.75,0,10.85-6.2,13-11,.55-1.23,4-9,0-16-.58-1-4-7-10-7a10.71,10.71,0,0,0-7,3l-1,1v-7h-31v-8Z"/><path id="handel_hole_right" data-name="handel hole right" class="cls-3" d="M94.61,60.24c1.06-2.89,3.33-4.81,5.59-4.79,3.55,0,5.3,4.79,5.59,5.59,2.19,6-.95,14.48-5.59,15.17-.7.11-2.76.23-5.59-2.4Z"/><path id="handel_hole_left" data-name="handel hole left" class="cls-3" d="M24.4,54.39c-1.32-3.58-4.12-6-6.93-5.94-4.4,0-6.57,5.94-6.93,6.93-2.72,7.4,1.18,18,6.93,18.82.87.13,3.42.28,6.93-3Z"/><g id="steam"><path class="cls-4" d="M38.5,32.45a9.9,9.9,0,0,1,1-5c1.22-2.37,2.58-2.34,3-4,.66-2.61-2.48-3.59-3-8a9.93,9.93,0,0,1,1-6c.75-1.34,1.46-1.67,2-3a7.46,7.46,0,0,0,0-5"/><path class="cls-4" d="M46.5,32.45a9.9,9.9,0,0,1,1-5c1.22-2.37,2.58-2.34,3-4,.66-2.61-2.48-3.59-3-8a9.93,9.93,0,0,1,1-6c.75-1.34,1.46-1.67,2-3a7.46,7.46,0,0,0,0-5"/><path class="cls-4" d="M73.5,41.45a9.9,9.9,0,0,1,1-5c1.22-2.37,2.58-2.34,3-4,.66-2.61-2.48-3.59-3-8a9.93,9.93,0,0,1,1-6c.75-1.34,1.46-1.67,2-3a7.46,7.46,0,0,0,0-5"/><path class="cls-4" d="M81.5,41.45a9.9,9.9,0,0,1,1-5c1.22-2.37,2.58-2.34,3-4,.66-2.61-2.48-3.59-3-8a9.93,9.93,0,0,1,1-6c.75-1.34,1.46-1.67,2-3a7.46,7.46,0,0,0,0-5"/></g></g></g></g></svg>