<svg xmlns="http://www.w3.org/2000/svg" xmlns:xlink="http://www.w3.org/1999/xlink" viewBox="0 0 111.66 99.78"><defs><style>.cls-1{fill:none;stroke:#ed1e79;stroke-width:8.05px;}.cls-1,.cls-10,.cls-11,.cls-12,.cls-2,.cls-3,.cls-4,.cls-5,.cls-6,.cls-7,.cls-8,.cls-9{stroke-miterlimit:10;}.cls-2{stroke:#000;stroke-width:7.69px;}.cls-3{fill:#fff594;stroke-width:7px;stroke:url(#radial-gradient);}.cls-4,.cls-5,.cls-6,.cls-7,.cls-8,.cls-9{fill:#8e1e26;stroke:#8e1e26;}.cls-4{stroke-width:1.2px;}.cls-5{stroke-width:0.77px;}.cls-6{stroke-width:0.91px;}.cls-7{stroke-width:0.99px;}.cls-8{stroke-width:1.16px;}.cls-9{stroke-width:0.67px;}.cls-10,.cls-11{fill:#8cc63f;stroke:#006837;}.cls-10{stroke-width:0.78px;}.cls-11{stroke-width:0.65px;}.cls-12{fill:#ff1d25;stroke:#c1272d;stroke-width:0.83px;}</style><radialGradient id="radial-gradient" cx="55.09" cy="48.94" r="46.06" gradientUnits="userSpaceOnUse"><stop offset="0" stop-color="#c69c6d"/><stop offset="0.27" stop-color="#c2986a"/><stop offset="0.53" stop-color="#b78d60"/><stop offset="0.77" stop-color="#a47a4f"/><stop offset="1" stop-color="#8c6239"/></radialGradient></defs><title>pizza</title><g id="Layer_2" data-name="Layer 2"><g id="ICONS"><g id="pizza"><path id="outline" class="cls-1" d="M41.35,7.09A28.9,28.9,0,0,1,54.58,17.66l7.93-7.94a28.86,28.86,0,0,1,34.38,0c12.49,9.32,12.55,26.65,8,37a28.54,28.54,0,0,1-5.28,7.94L57.29,94.34l-45-39.63A29.41,29.41,0,0,1,7,46.78c-4-9-5.39-24.49,5.26-34.38C20.25,5,32,3.5,41.35,7.09Z"/><g id="outline2"><path class="cls-2" d="M41.7,9a27.62,27.62,0,0,1,12.65,10.1l7.58-7.59a27.6,27.6,0,0,1,32.86,0c11.94,8.9,12,25.47,7.61,35.37a27.27,27.27,0,0,1-5,7.59L56.94,92.34l-43-37.87a28.11,28.11,0,0,1-5.06-7.58C5,38.31,3.72,23.49,13.9,14,21.53,7,32.76,5.53,41.7,9Z"/></g><path id="cheese" class="cls-3" d="M42.5,11.7A25.14,25.14,0,0,1,54,20.89L60.9,14a25.11,25.11,0,0,1,29.91,0c10.87,8.11,10.92,23.19,6.93,32.21a24.83,24.83,0,0,1-4.6,6.91L56.36,87.61,17.22,53.13a25.59,25.59,0,0,1-4.61-6.9c-3.52-7.81-4.69-21.31,4.58-29.91C24.14,9.87,34.35,8.58,42.5,11.7Z"/><g id="perpperoni"><circle class="cls-4" cx="61.09" cy="44.41" r="9.58" transform="translate(-7.15 12.05) rotate(-10.65)"/><circle class="cls-5" cx="33.12" cy="40.3" r="8.5"/><circle class="cls-6" cx="57.37" cy="66.55" r="7.25" transform="translate(-11.31 11.74) rotate(-10.65)"/><circle class="cls-7" cx="70.82" cy="24.36" r="7.95" transform="translate(-3.29 35.16) rotate(-27.27)"/><path class="cls-8" d="M28,57.52a9.25,9.25,0,1,1,13.15,13Z"/><path class="cls-8" d="M79.71,61.58a9.25,9.25,0,1,1,13-13.15Z"/><circle class="cls-9" cx="85.28" cy="37.23" r="5.32" transform="translate(-7.58 43.22) rotate(-27.27)"/><circle class="cls-9" cx="42.28" cy="25.23" r="5.32" transform="translate(-6.86 22.18) rotate(-27.27)"/></g><g id="green_peppers" data-name="green peppers"><path class="cls-10" d="M51.36,29.21c-.63,0-.76.05-.87.14a1.32,1.32,0,0,0-.07,1.6c.58.89,2.14.7,2.28.68,1.23-.16,1.34-.9,2.34-.92,1.15,0,1.62,1,2.28.68a1.48,1.48,0,0,0,.56-1.86c-.46-.91-2.16-.82-2.66-.8-1.14.06-1.44.47-2.61.43C52.29,29.17,52,29.18,51.36,29.21Z"/><path class="cls-11" d="M68.11,62.94c-.39.36-.46.44-.48.56-.08.39.33.9.82,1,.85.24,1.75-.72,1.83-.8.7-.77.38-1.29,1-1.84s1.56-.28,1.83-.8a1.2,1.2,0,0,0-.64-1.47c-.79-.32-1.83.66-2.14.94-.7.66-.67,1.08-1.45,1.68C68.69,62.41,68.5,62.59,68.11,62.94Z"/><path class="cls-10" d="M52,75.14c-.58-.25-.71-.28-.85-.24a1.32,1.32,0,0,0-.75,1.42c.14,1.05,1.63,1.55,1.76,1.6,1.18.38,1.6-.24,2.51.18s1.05,1.56,1.76,1.6a1.48,1.48,0,0,0,1.3-1.44c0-1-1.6-1.67-2.06-1.86-1.06-.44-1.51-.19-2.54-.73C52.9,75.5,52.62,75.38,52,75.14Z"/><path class="cls-10" d="M30.95,26.17c-.26.58-.3.7-.27.84a1.32,1.32,0,0,0,1.39.79c1.06-.11,1.6-1.58,1.65-1.71.42-1.16-.19-1.61.26-2.5s1.59-1,1.65-1.71a1.48,1.48,0,0,0-1.4-1.35c-1,0-1.72,1.55-1.92,2-.47,1-.24,1.5-.81,2.52C31.34,25.32,31.21,25.6,30.95,26.17Z"/></g><g id="red_peppers" data-name="red peppers"><path class="cls-12" d="M17.72,38.87c.22.62.29.74.41.83a1.43,1.43,0,0,0,1.65-.41c.73-.85.06-2.34,0-2.48-.54-1.18-1.33-1.07-1.65-2.07-.37-1.14.48-1.9,0-2.48a1.6,1.6,0,0,0-2.07,0c-.78.74-.18,2.41,0,2.89.41,1.13.92,1.3,1.24,2.48C17.39,38,17.5,38.26,17.72,38.87Z"/><path class="cls-12" d="M46.72,54.87c.22.62.29.74.41.83a1.43,1.43,0,0,0,1.65-.41c.73-.85.06-2.34,0-2.48-.54-1.18-1.33-1.07-1.65-2.07-.37-1.14.48-1.9,0-2.48a1.6,1.6,0,0,0-2.07,0c-.78.74-.18,2.41,0,2.89.41,1.13.92,1.3,1.24,2.48C46.39,54,46.5,54.26,46.72,54.87Z"/><path class="cls-12" d="M86.67,24.82c-.63-.22-.75-.24-.9-.2A1.43,1.43,0,0,0,85,26.16c.2,1.1,1.78,1.52,1.92,1.56,1.25.32,1.67-.36,2.64,0s1.18,1.57,1.92,1.56a1.6,1.6,0,0,0,1.3-1.6c-.08-1.07-1.76-1.65-2.25-1.82-1.13-.39-1.59-.1-2.71-.6C87.59,25.14,87.28,25,86.67,24.82Z"/><path class="cls-12" d="M72.54,41.74c-.31.58-.36.71-.34.86a1.43,1.43,0,0,0,1.41,1c1.12,0,1.78-1.52,1.84-1.66.51-1.19-.09-1.71.43-2.61s1.73-.92,1.84-1.66a1.6,1.6,0,0,0-1.38-1.53C75.27,36,74.44,37.57,74.19,38c-.56,1.06-.34,1.56-1,2.58C73,40.88,72.85,41.17,72.54,41.74Z"/></g></g></g></g></svg>