<svg xmlns="http://www.w3.org/2000/svg" viewBox="0 0 116.84 133.58"><defs><style>.cls-1{fill:#b3b3b3;}.cls-1,.cls-2,.cls-3{stroke:#000;stroke-miterlimit:10;stroke-width:4px;}.cls-2{fill:#fff;}.cls-3{fill:#ff7bac;}</style></defs><title>ring</title><g id="Layer_2" data-name="Layer 2"><g id="ICONS"><g id="ring"><circle id="grey_ring" data-name="grey ring" class="cls-1" cx="58.42" cy="75.16" r="56.42"/><circle id="inner_ring" data-name="inner ring" class="cls-2" cx="58.42" cy="75.16" r="44.03"/><path id="heart" class="cls-3" d="M63.5,6.95c1.94-3,5.88-4.28,6.59-4.48C76.27.68,81.65,4.61,82,4.84a14.31,14.31,0,0,1,5.27,8.44c1,5.05-1.27,9.18-2.64,11.6s-2,2.68-13.71,13.71a124.59,124.59,0,0,0-9.54,10,13.33,13.33,0,0,0-.8,1.1c-2.84,4.09-14.16-11.85-18.6-16.41-1-1-2-2.07-2.89-3.17-.37-.44-.7-.83-.87-1-1.22-1.22-1.23-1.24-1.41-1.42a34.42,34.42,0,0,1-4.39-6,10.28,10.28,0,0,1-1.61-4.12,8.92,8.92,0,0,1,0-2.21A16.85,16.85,0,0,1,34,7.47a14.64,14.64,0,0,1,7.38-4.75,15,15,0,0,1,10.55.53,15.2,15.2,0,0,1,7.91,9.49c.77-1.05.85-1.61,2.11-3.69C62.41,8.24,63.29,7.26,63.5,6.95Z"/></g></g></g></svg>