<svg xmlns="http://www.w3.org/2000/svg" viewBox="0 0 118 60.26"><defs><style>.cls-1,.cls-2{fill:none;}.cls-1{stroke:#ed1e79;stroke-width:4px;}.cls-1,.cls-2,.cls-3{stroke-miterlimit:10;}.cls-2,.cls-3{stroke:#000;}.cls-2{stroke-width:2px;}.cls-3{fill:#ed1e79;stroke-width:0.98px;}</style></defs><title>swan</title><g id="Layer_2" data-name="Layer 2"><g id="ICONS"><g id="swans"><g id="outline"><path class="cls-1" d="M62.5,8.76c0-1.77.14-4.68,2-6,3.48-2.48,11.68,1.4,14,7,.36.88.83,2.41-1,14-1.06,6.68-1.77,9.69-1,10s2.33-3,6-7a34.81,34.81,0,0,1,10-8c5-2.5,13.84-4.76,17-1,1.48,1.76,1.2,4.23,1,6-1,9.14-10,14.39-9,16,.34.53,1.73.61,6-1v5h-42l-3-3-1-8,9-10a10.31,10.31,0,0,0,2-3c1.06-2.45,1.9-7.1-1-10a7.07,7.07,0,0,0-6-2,7.57,7.57,0,0,0-6,6,7,7,0,0,0-1-2c-.24-.32-2.44-3.26-6-3a6.93,6.93,0,0,0-5,3,7.55,7.55,0,0,0,0,8l12,13,1,1v7l-6,5-42-1-3-6,9,2a23.44,23.44,0,0,1-8-9,23.76,23.76,0,0,1-2-15,35.4,35.4,0,0,1,16,2A36.19,36.19,0,0,1,41.72,32.54c.31.47.57.88.78,1.22v-8a14,14,0,0,1-4-9c0-.32-.2-7.06,5-11,.74-.56,5.29-4,9-2,1.94,1.05,3.72,5.1,4,6"/><path class="cls-1" d="M61.08,12.52l1.28-1.64c.29-.31,2.57-2.7,5.55-2a6.12,6.12,0,0,1,3.7,3c1.7,3,.71,6.81-.93,9a7,7,0,0,1-.93,1L60.51,32.76,55,26.8l-2.78-3a14.5,14.5,0,0,1-1.85-2c-1.39-1.8-3.18-4.13-2.78-7a7.2,7.2,0,0,1,3.7-5,6.19,6.19,0,0,1,5.55,0c.24.13.48.29.48.29a6.59,6.59,0,0,1,2.1,2.34l.85,1.82Z"/><line class="cls-1" y1="45.26" x2="118" y2="45.26"/><line class="cls-1" x1="16" y1="51.26" x2="31" y2="51.26"/><line class="cls-1" x1="36" y1="52.26" x2="41" y2="52.26"/><line class="cls-1" x1="46" y1="52.26" x2="73" y2="52.26"/><line class="cls-1" x1="78" y1="51.26" x2="83" y2="51.26"/><line class="cls-1" x1="88" y1="52.26" x2="104" y2="52.26"/><line class="cls-1" x1="24" y1="58.26" x2="30" y2="58.26"/><line class="cls-1" x1="33" y1="58.26" x2="50" y2="58.26"/><line class="cls-1" x1="55" y1="57.26" x2="64" y2="57.26"/><line class="cls-1" x1="69" y1="58.26" x2="86" y2="58.26"/><line class="cls-1" x1="89" y1="58.26" x2="95" y2="58.26"/></g><path id="swans-2" data-name="swans" class="cls-2" d="M62.5,8.76c0-1.77.14-4.68,2-6,3.48-2.48,11.68,1.4,14,7,.36.88.83,2.41-1,14-1.06,6.68-1.77,9.69-1,10s2.33-3,6-7a34.81,34.81,0,0,1,10-8c5-2.5,13.84-4.76,17-1,1.48,1.76,1.2,4.23,1,6-1,9.14-10,14.39-9,16,.34.53,1.73.61,6-1v5h-42l-3-3-1-8,9-10a10.31,10.31,0,0,0,2-3c1.06-2.45,1.9-7.1-1-10a7.07,7.07,0,0,0-6-2,7.57,7.57,0,0,0-6,6,7,7,0,0,0-1-2c-.24-.32-2.44-3.26-6-3a6.93,6.93,0,0,0-5,3,7.55,7.55,0,0,0,0,8l12,13,1,1v7l-6,5-42-1-3-6,9,2a23.44,23.44,0,0,1-8-9,23.76,23.76,0,0,1-2-15,35.4,35.4,0,0,1,16,2A36.19,36.19,0,0,1,41.72,32.54c.31.47.57.88.78,1.22v-8a14,14,0,0,1-4-9c0-.32-.2-7.06,5-11,.74-.56,5.29-4,9-2,1.94,1.05,3.72,5.1,4,6"/><path id="heart" class="cls-3" d="M61.08,12.52l1.28-1.64c.29-.31,2.57-2.7,5.55-2a6.12,6.12,0,0,1,3.7,3c1.7,3,.71,6.81-.93,9a7,7,0,0,1-.93,1L60.51,32.76,55,26.8l-2.78-3a14.5,14.5,0,0,1-1.85-2c-1.39-1.8-3.18-4.13-2.78-7a7.2,7.2,0,0,1,3.7-5,6.19,6.19,0,0,1,5.55,0c.24.13.48.29.48.29a6.59,6.59,0,0,1,2.1,2.34l.85,1.82Z"/><g id="water_lines" data-name="water lines"><line class="cls-2" y1="45.26" x2="118" y2="45.26"/><line class="cls-2" x1="16" y1="51.26" x2="31" y2="51.26"/><line class="cls-2" x1="46" y1="52.26" x2="73" y2="52.26"/><line class="cls-2" x1="36" y1="52.26" x2="41" y2="52.26"/><line class="cls-2" x1="78" y1="51.26" x2="83" y2="51.26"/><line class="cls-2" x1="88" y1="52.26" x2="104" y2="52.26"/><line class="cls-2" x1="24" y1="58.26" x2="30" y2="58.26"/><line class="cls-2" x1="33" y1="58.26" x2="50" y2="58.26"/><line class="cls-2" x1="55" y1="57.26" x2="64" y2="57.26"/><line class="cls-2" x1="69" y1="58.26" x2="86" y2="58.26"/><line class="cls-2" x1="89" y1="58.26" x2="95" y2="58.26"/></g></g></g></g></svg>